<?xml version="1.0" encoding="utf-8"?>
<!-- Generator: Adobe Illustrator 23.0.1, SVG Export Plug-In . SVG Version: 6.00 Build 0)  -->
<svg version="1.1" id="Layer_1" xmlns="http://www.w3.org/2000/svg" xmlns:xlink="http://www.w3.org/1999/xlink" x="0px" y="0px"
	 viewBox="0 0 508.2 484.1" style="enable-background:new 0 0 508.2 484.1;" xml:space="preserve">
<style type="text/css">
	.st0{fill:#FFFFFF;}
	.st1{fill:#359EEF;}
	.st2{fill:#349DEE;}
</style>
<g>
	<g>
		<g>
			<path class="st0" d="M262.6,0c21.6,22.1,49.1,37.5,77.6,49c16,6.4,32.4,11.8,49.2,15.8c4.5,1.1,9.2,1.6,13.9,2.1
				c2.3,18.9,1.6,38-0.2,56.9c-4.3,39.6-15.8,78.6-35.2,113.5c-21,37.9-51.5,70.4-87.6,94.3c-5.7,3.8-11.5,7.6-17.7,10.7
				c-27.6-15.8-52.7-36-73.5-60.1c-21.7-25-38.5-54.1-49.8-85.3c-13.4-36.8-19.6-76.1-18.3-115.2c0.1-5,0.7-9.9,1.5-14.9
				c11.8-0.9,23.1-4.5,34.4-7.8c29.4-9.2,58.2-21.6,83.4-39.6C248.1,13.7,255.5,7,262.6,0z M222.6,45c-28,15.1-58.1,26-89.1,33
				c-2,32.7,2.4,65.7,11.5,97.1c9,30.7,23.2,60,42.5,85.5c20.3,27,46.1,49.8,75,67.3c21.3-12.6,40.7-28.4,57.7-46.3
				c24.3-25.9,42.9-56.9,54.8-90.2c12.9-36.2,18.8-74.9,17-113.3c-16.9-3.9-33.6-8.8-49.8-15c-28.7-10.9-56.2-25.5-79.5-45.7
				C250.2,28,236.8,37.3,222.6,45z"/>
		</g>
		<path class="st0" d="M143.5,94.9c79.3-0.2,158.6-0.1,237.9,0c0.2,4.5,0.2,9.1-0.1,13.6c-79.3,0-158.5,0-237.8,0
			C143.4,103.9,143.4,99.4,143.5,94.9z"/>
		<path class="st0" d="M144.1,118.5c37.4-0.2,74.9-0.2,112.3,0c0.2,52.1,0,104.2,0.1,156.3c-0.1,12.1,0.2,24.3-0.2,36.4
			c-4.8-2.9-10-5.6-14-9.7c-0.9-3.8-0.4-7.8-0.5-11.7c0.1-52.3-0.1-104.5,0.1-156.8c-32.2-0.3-64.4-0.1-96.6-0.4
			C144.7,128,144.3,123.2,144.1,118.5z"/>
		<path class="st0" d="M267.2,118.5c37.9-0.2,75.8-0.2,113.6,0c-0.1,4.8-0.5,9.5-0.9,14.3c-32.9,0.6-65.9,0.1-98.8,0.3
			c-0.4,56.8,0.1,113.6-0.2,170.3c-4.4,3.1-8.8,6.2-13.6,8.7c-0.4-48.1,0-96.2-0.2-144.3C267.2,151.4,267,134.9,267.2,118.5z"/>
	</g>
	<g>
		<path class="st1" d="M262.5,29c24.9,23.1,56.2,37.9,88.3,48.3c10.1,3.3,20.4,5.7,30.7,8.2c-79.1,0-158.2,0.1-237.3-0.1
			c32.4-7.4,64.2-18.6,92.4-36.3C245.8,43.3,254.4,36.4,262.5,29z"/>
		<path class="st1" d="M147,142.9c28.2,0.1,56.3,0.1,84.5,0.2c0.6,17.2,0.1,34.5,0.2,51.7c0,30,0,60,0,90c0,2.8-0.1,5.6-0.3,8.4
			c-11.3-8.4-21.1-18.7-30.3-29.2c-23.9-27.9-40.7-61.8-49.5-97.4C149.6,158.8,147.8,150.9,147,142.9z"/>
		<path class="st1" d="M292.1,143.1c28.7,0,57.4-0.1,86.1,0.1c-7.5,49.6-29.9,97.4-65.5,133.1c-6.5,6.4-13,13-20.6,18.1
			c-0.6-21.5-0.1-43-0.3-64.5C292.1,200.9,291.6,172,292.1,143.1z"/>
	</g>
</g>
<g>
	<path class="st2" d="M0,377.5V367h52.1v10.5H32.5v49.8H19.4v-49.8H0z"/>
	<path class="st2" d="M73.4,382.9c6.3,0.1,10,1.5,11,4.4s1.5,6.7,1.4,11.5c0,0.4,0,0.9,0,1.3c0,0.4,0,0.9,0,1.4l-11.2-0.1
		c0-0.3,0-0.6,0-0.9c0-0.3,0-0.6,0-0.9c0-4.1-0.3-6.5-1-7.1c-0.6-0.7-3-1-7-1c-0.2,0-0.4,0-0.6,0c-0.2,0-0.4,0-0.6,0v35.7H53.7
		v-44.3L73.4,382.9L73.4,382.9z"/>
	<path class="st2" d="M89.9,377.9v-11h12.3v11H89.9z M89.9,427.2v-44.3h12.3v44.3H89.9z"/>
	<path class="st2" d="M127.4,427.2c-6.6,0-11.8-1.9-15.5-5.6c-3.7-3.7-5.8-8.8-6.1-15.3c-0.1-3,0.2-5.9,0.9-8.7s2-5.4,3.9-7.8
		c2.3-2.9,4.9-4.7,7.9-5.5s6.2-1.3,9.6-1.3l10-0.1v-16.1h11.7v60.3L127.4,427.2L127.4,427.2z M138.2,417.7v-25.2
		c-0.4,0.1-0.9,0.1-1.3,0.1c-0.4,0-0.9,0-1.3,0c-0.6,0-1.1,0-1.7,0c-0.6,0-1.1,0-1.7,0c-1,0-2,0-3,0s-2,0.1-3,0.2
		c-0.9,0.1-1.8,0.3-2.6,0.8c-0.8,0.4-1.6,1-2.2,1.6c-1.2,1.2-2,2.5-2.5,4.1c-0.5,1.5-0.8,3.1-0.9,4.7c0,0.4,0,0.9,0,1.3
		c0,0.4,0,0.8,0,1.2c0.2,5.9,1.9,9.4,5.1,10.3c3.2,0.9,7.1,1.3,11.6,1.3c0.6-0.1,1.1-0.1,1.7-0.1
		C137.1,417.8,137.6,417.8,138.2,417.7L138.2,417.7z"/>
	<path class="st2" d="M167.3,426.1c-2.9-0.8-5.5-2.3-7.8-4.7c-1.8-2-3.1-4.2-3.9-6.7c-0.8-2.5-1.3-5.1-1.5-7.7c0-0.3,0-0.6,0-0.8
		c0-0.3,0-0.6,0-0.8c0-0.4,0-0.8,0-1.1c0-0.4,0-0.7,0.1-1.1c0.2-2.5,0.7-5,1.5-7.4s2.1-4.6,3.8-6.5c2.2-2.5,4.8-4.1,7.8-4.8
		c2.9-0.8,6-1.1,9.1-1.1l17.1-0.1v9.2H178c-3.3,0.1-5.9,0.5-7.8,1.5c-2,0.9-3,3.2-3.1,6.9l26.4-0.1v9.2h-26.4
		c0.1,3.9,1.1,6.2,2.9,7.1c1.8,0.8,4.5,1.3,7.9,1.3l15.5-0.1v9.2h-17.1C173.3,427.2,170.3,426.9,167.3,426.1z"/>
	<path class="st2" d="M219.6,382.9c5.8,0.1,10.4,1.2,13.6,3.4c3.2,2.2,4.9,6.5,4.9,12.9v28h-11.7v-26.6c0-3.1-0.5-5.2-1.5-6.2
		c-1-1.1-3.1-1.6-6.2-1.6l-9.4-0.1v34.5h-11.7v-44.3L219.6,382.9L219.6,382.9z"/>
	<path class="st2" d="M296.9,391.4h30v35.8h-27.3c-3.5,0-6.8-0.3-10.1-0.9c-3.2-0.6-6.3-2-9.1-4.3c-3.4-2.7-5.7-6.1-7.1-10
		c-1.3-3.9-2.1-8-2.2-12.1c-0.1-0.9-0.1-1.8,0-2.6c0-0.8,0.1-1.7,0.1-2.5c0.6-9.5,3.2-16.5,7.8-21s11.4-6.7,20.5-6.7l27.3-0.1v10.3
		h-27.3c-6,0.1-9.9,2.2-11.6,6.3c-1.8,4.2-2.6,8.8-2.6,13.7c0,0.1,0,0.1,0,0.1v0.1c0,5.1,0.9,9.5,2.6,13.2c1.8,3.7,5.6,5.5,11.6,5.5
		l14.3-0.1v-14.2h-17L296.9,391.4L296.9,391.4z"/>
	<path class="st2" d="M352.5,382.9c6.3,0.1,10,1.5,11,4.4s1.5,6.7,1.4,11.5c0,0.4,0,0.9,0,1.3c0,0.4,0,0.9,0,1.4l-11.2-0.1
		c0-0.3,0-0.6,0-0.9c0-0.3,0-0.6,0-0.9c0-4.1-0.3-6.5-1-7.1c-0.6-0.7-3-1-7-1c-0.2,0-0.4,0-0.6,0c-0.2,0-0.4,0-0.6,0v35.7h-11.7
		v-44.3L352.5,382.9L352.5,382.9z"/>
	<path class="st2" d="M406.4,421.9c-2.1,2.1-4.7,3.7-7.7,4.7s-6.1,1.5-9.3,1.5s-6.3-0.5-9.2-1.5c-3-1-5.5-2.5-7.6-4.6
		c-2.2-2.1-3.8-4.7-4.9-7.6c-1.1-3-1.6-6-1.6-9.2c0-3.1,0.5-6.2,1.6-9.2s2.7-5.5,4.9-7.6c2.1-2.1,4.7-3.6,7.7-4.7
		c3-1,6.1-1.6,9.3-1.6c3.1,0,6.2,0.5,9.2,1.6c3,1,5.6,2.6,7.7,4.7c2.2,2.1,3.8,4.7,4.9,7.6c1.1,3,1.6,6,1.6,9.2
		c0,3.1-0.5,6.2-1.6,9.2C410.3,417.3,408.6,419.9,406.4,421.9L406.4,421.9z M385.5,417.8c0.4,0.2,0.8,0.3,1.1,0.4
		c0.4,0.1,0.7,0.2,1.1,0.3c2.7,0.4,5.2-0.1,7.6-1.5c2.4-1.4,3.9-3.4,4.7-6.1c0.3-1,0.5-2,0.6-3.1s0.2-2.2,0.2-3.3
		c-0.1-2.5-0.7-4.8-1.8-7s-2.8-3.8-5.1-4.8c-0.5-0.2-1-0.4-1.6-0.5s-1.1-0.2-1.6-0.3c-2.6-0.2-5,0.4-7.2,1.8
		c-2.2,1.4-3.8,3.4-4.5,5.9c-0.3,1-0.5,1.9-0.6,3c-0.1,1-0.2,2.1-0.1,3.1c0.1,2.6,0.7,5.1,1.8,7.4C381.2,415.3,383,417,385.5,417.8
		L385.5,417.8z"/>
	<path class="st2" d="M434.9,427.2c-5.7,0-10.1-1.1-13.4-3.4c-3.3-2.2-5-6.5-5-12.8v-28.2h11.7v27.1c0,3,0.6,5,1.7,6
		c1.1,1,3.1,1.5,6,1.5l9.4-0.1v-34.5H457v44.3h-22.1L434.9,427.2L434.9,427.2z"/>
	<path class="st2" d="M486.6,382.9c6.6,0.1,11.8,2,15.5,5.7c3.7,3.8,5.7,8.9,6,15.4c0.2,3-0.1,5.9-0.8,8.7c-0.7,2.9-2,5.4-3.9,7.7
		c-2.2,2.9-4.9,4.8-7.9,5.5c-3,0.8-6.2,1.2-9.7,1.2h-10.1v16H464v-60.3L486.6,382.9L486.6,382.9z M475.8,392.5v25.2
		c0.4,0.1,0.8,0.1,1.1,0.1c0.4,0,0.7,0,1.1,0c5.4,0.1,9.7-0.5,13.1-1.6c3.4-1.1,5-5.2,4.8-12.2c-0.2-5.9-1.8-9.3-5-10.2
		s-7-1.3-11.5-1.3c-0.6,0.1-1.2,0.1-1.8,0.1C477,392.6,476.4,392.6,475.8,392.5L475.8,392.5z"/>
</g>
<g>
	<path class="st0" d="M6.5,478.2l-3.8-29.1h5l2,17.7l2.6-17.7h3.9l2.7,17.7l2-17.7h4.9L22,478.2h-5l-2.8-18.4l-2.8,18.4H6.5z"/>
	<path class="st0" d="M29,478.2v-29.1h5.4v10.2c1.5-1.5,3.2-2.3,5.1-2.3c1.2,0,2.1,0.4,2.7,1.3c0.6,0.9,0.9,2,0.9,3.3V478h-5.4
		v-15.5c0-0.6-0.1-1-0.3-1.3s-0.5-0.4-0.9-0.4c0,0,0,0-0.1,0c-0.5,0-1.2,0.3-2.1,0.9V478H29L29,478.2L29,478.2z"/>
	<path class="st0" d="M53.3,478.6c-2.3,0-4.1-0.6-5.2-1.9c-1.2-1.3-1.7-3.1-1.7-5.5v-6.7c0-2.4,0.6-4.2,1.8-5.5s2.9-1.9,5.2-1.9
		c2.4,0,4.1,0.6,5.1,1.9c1.1,1.3,1.6,3.2,1.6,5.7v3.5h-8.3v3.4c0,1,0.1,1.8,0.3,2.3s0.6,0.8,1.2,0.8c1.1,0,1.6-0.8,1.6-2.3v-1.9H60
		v1.7c0,2.1-0.6,3.7-1.7,4.8C57.1,478,55.4,478.6,53.3,478.6z M51.7,465.5h3.2v-2c0-0.9-0.1-1.5-0.4-1.9s-0.7-0.6-1.2-0.6
		s-1,0.2-1.2,0.7c-0.2,0.4-0.4,1.2-0.4,2.3L51.7,465.5L51.7,465.5z"/>
	<path class="st0" d="M63.3,478.2v-20.8h5.4v3.3c1.3-2.4,2.7-3.6,4.2-3.6c0.2,0,0.5,0,0.8,0.1v5c-0.4-0.1-0.8-0.2-1.3-0.2
		c-0.8,0-1.5,0.2-2.1,0.6c-0.6,0.4-1.2,1-1.7,1.7V478h-5.3V478.2z"/>
	<path class="st0" d="M82.6,478.6c-2.3,0-4.1-0.6-5.2-1.9c-1.2-1.3-1.7-3.1-1.7-5.5v-6.7c0-2.4,0.6-4.2,1.8-5.5s2.9-1.9,5.2-1.9
		c2.4,0,4.1,0.6,5.1,1.9c1.1,1.3,1.6,3.2,1.6,5.7v3.5h-8.3v3.4c0,1,0.1,1.8,0.3,2.3s0.6,0.8,1.2,0.8c1.1,0,1.6-0.8,1.6-2.3v-1.9h5.1
		v1.7c0,2.1-0.6,3.7-1.7,4.8C86.4,478,84.8,478.6,82.6,478.6z M81.1,465.5h3.2v-2c0-0.9-0.1-1.5-0.4-1.9c-0.3-0.4-0.7-0.6-1.2-0.6
		c-0.6,0-1,0.2-1.2,0.7c-0.2,0.4-0.4,1.2-0.4,2.3L81.1,465.5L81.1,465.5z"/>
	<path class="st0" d="M109.4,478.6c-2.7,0-4.7-0.7-6.1-2.2c-1.3-1.5-2.1-3.8-2.2-6.8l5.1-0.9c0,1.8,0.3,3.2,0.7,4.1
		c0.5,0.9,1.2,1.4,2.1,1.4c0.7,0,1.2-0.2,1.5-0.7c0.3-0.4,0.5-1,0.5-1.7c0-1.1-0.2-2.1-0.7-2.9c-0.5-0.8-1.3-1.6-2.4-2.6l-3.1-2.7
		c-0.8-0.7-1.4-1.3-1.9-1.9c-0.5-0.6-0.9-1.4-1.2-2.3c-0.3-0.9-0.5-2-0.5-3.1c0-2.4,0.7-4.2,2.1-5.5c1.4-1.3,3.3-1.9,5.7-2
		c0.8,0,1.6,0.1,2.2,0.2c0.7,0.2,1.3,0.4,1.7,0.7c0.5,0.3,0.9,0.6,1.3,1.1c0.4,0.4,0.7,0.9,0.9,1.3c0.2,0.5,0.4,1,0.6,1.5
		c0.2,0.6,0.3,1.1,0.4,1.6c0.1,0.5,0.1,1.1,0.2,1.7l-5.1,0.8c0-0.6-0.1-1.1-0.1-1.5s-0.1-0.8-0.2-1.2c-0.1-0.4-0.2-0.8-0.4-1
		s-0.4-0.4-0.7-0.6c-0.3-0.2-0.6-0.2-1-0.2c-0.7,0-1.2,0.3-1.5,0.8c-0.4,0.5-0.5,1-0.5,1.7c0,0.5,0.1,1,0.2,1.4
		c0.1,0.4,0.3,0.8,0.6,1.2s0.5,0.7,0.8,0.9c0.2,0.2,0.6,0.5,1,0.9l3.1,2.7c0.7,0.6,1.2,1.2,1.7,1.7s0.9,1.2,1.4,1.9
		c0.4,0.7,0.8,1.5,1,2.3s0.3,1.7,0.3,2.7c0,2.1-0.7,3.9-2.1,5.2C113.5,477.9,111.7,478.6,109.4,478.6z"/>
	<path class="st0" d="M126.3,478.6c-2.3,0-4.1-0.6-5.2-1.9c-1.2-1.3-1.7-3.1-1.7-5.5v-6.7c0-2.4,0.6-4.2,1.8-5.5s2.9-1.9,5.2-1.9
		c2.4,0,4.1,0.6,5.1,1.9c1.1,1.3,1.6,3.2,1.6,5.7v3.5h-8.3v3.4c0,1,0.1,1.8,0.3,2.3s0.6,0.8,1.2,0.8c1.1,0,1.6-0.8,1.6-2.3v-1.9h5.1
		v1.7c0,2.1-0.6,3.7-1.7,4.8C130.1,478,128.4,478.6,126.3,478.6z M124.7,465.5h3.2v-2c0-0.9-0.1-1.5-0.4-1.9
		c-0.3-0.4-0.7-0.6-1.2-0.6c-0.6,0-1,0.2-1.2,0.7c-0.2,0.4-0.4,1.2-0.4,2.3L124.7,465.5L124.7,465.5z"/>
	<path class="st0" d="M142.7,478.6c-2.3,0-4-0.6-5.2-1.9c-1.2-1.3-1.7-3.1-1.7-5.4v-6.8c0-2.3,0.6-4.1,1.7-5.4
		c1.1-1.3,2.9-1.9,5.2-1.9c4.5,0,6.7,2.1,6.7,6.3v2h-5.2v-2.2c0-0.9-0.1-1.5-0.4-1.9c-0.2-0.4-0.6-0.5-1.1-0.5c-0.6,0-1,0.2-1.2,0.6
		c-0.2,0.4-0.3,1.2-0.3,2.3v8.1c0,1.1,0.1,1.8,0.4,2.2c0.2,0.4,0.6,0.6,1.2,0.6c0.5,0,0.9-0.2,1.1-0.6c0.2-0.4,0.3-1,0.3-1.8v-2.5
		h5.2v2.3c0,2.1-0.6,3.7-1.7,4.8C146.6,478,144.9,478.6,142.7,478.6z"/>
	<path class="st0" d="M156,478.5c-1.2,0-2.1-0.4-2.7-1.3c-0.6-0.9-0.9-2-0.9-3.3v-16.4h5.4v15.6c0,0.6,0.1,1,0.3,1.3
		s0.5,0.4,0.9,0.4c0,0,0,0,0.1,0c0.5,0,1.2-0.3,1.9-0.7v-16.6h5.4v20.8H161v-2C159.4,477.8,157.7,478.5,156,478.5z"/>
	<path class="st0" d="M170.2,478.2v-20.8h5.4v3.3c1.3-2.4,2.7-3.6,4.2-3.6c0.2,0,0.5,0,0.8,0.1v5c-0.4-0.1-0.8-0.2-1.3-0.2
		c-0.8,0-1.5,0.2-2.1,0.6c-0.6,0.4-1.2,1-1.7,1.7V478h-5.3L170.2,478.2L170.2,478.2z"/>
	<path class="st0" d="M183.1,454v-4.1h5.5v4.1H183.1z M183.2,478.2v-20.8h5.4v20.8H183.2z"/>
	<path class="st0" d="M198.2,478.5c-0.8,0-1.6-0.2-2.2-0.4c-0.6-0.3-1.1-0.6-1.5-1s-0.7-0.9-0.9-1.5s-0.4-1.2-0.5-1.9
		c-0.1-0.6-0.1-1.3-0.1-2.1V461h-2v-3.6h2v-6.2h5.5v6.2h3.1v3.6h-3.1v11.3c0,1.2,0.6,1.8,1.9,1.8h0.1c0.4,0,0.8,0,1.4-0.1v4.2
		c-1.4,0.2-2.6,0.3-3.4,0.3C198.4,478.5,198.3,478.5,198.2,478.5z"/>
	<path class="st0" d="M205,484v-3.8c1.4,0,2.3-0.1,2.8-0.4c0.4-0.2,0.6-0.6,0.6-1.3c0-0.1,0-0.3,0-0.4c-0.1-0.6-0.3-1.7-0.7-3.2
		c-0.2-0.9-1-3.8-2.3-8.7s-2.1-7.8-2.3-8.7h5.2l2.6,12.7l2.1-12.7h5.2l-4.9,21.9c-0.7,3.1-3.1,4.7-7.2,4.7c-0.1,0-0.1,0-0.2,0
		L205,484L205,484z"/>
	<path class="st0" d="M229.6,478.2v-29.1h9.1c5.1,0,7.6,2.8,7.6,8.4c0,1.5-0.2,2.8-0.6,3.9c-0.4,1.1-1,1.9-1.7,2.5s-1.6,1-2.5,1.3
		s-2,0.4-3.3,0.4h-2.6v12.7L229.6,478.2L229.6,478.2z M235.5,461.4h1.9c1.3,0,2.2-0.3,2.6-0.9c0.4-0.6,0.7-1.6,0.7-3.1
		c0-0.8,0-1.4-0.1-1.8c-0.1-0.4-0.2-0.9-0.4-1.2c-0.2-0.4-0.5-0.7-1-0.8c-0.5-0.2-1-0.2-1.8-0.2h-1.9V461.4z"/>
	<path class="st0" d="M249,478.2v-20.8h5.4v3.3c1.3-2.4,2.7-3.6,4.2-3.6c0.2,0,0.5,0,0.8,0.1v5c-0.4-0.1-0.8-0.2-1.3-0.2
		c-0.8,0-1.5,0.2-2.1,0.6c-0.6,0.4-1.2,1-1.7,1.7V478H249L249,478.2L249,478.2z"/>
	<path class="st0" d="M268.4,478.6c-2.2,0-4-0.6-5.2-1.8s-1.8-2.9-1.8-5.2v-7.4c0-2.3,0.6-4,1.8-5.2s2.9-1.8,5.2-1.8s4,0.6,5.2,1.8
		s1.8,2.9,1.8,5.2v7.4c0,2.3-0.6,4-1.8,5.2S270.6,478.6,268.4,478.6z M268.4,474.8c0.6,0,1.1-0.2,1.3-0.7s0.3-1.2,0.3-2.2v-8.2
		c0-1-0.1-1.7-0.3-2.2s-0.7-0.7-1.3-0.7s-1.1,0.3-1.3,0.8s-0.3,1.2-0.3,2.2v8.2c0,0.9,0.1,1.7,0.3,2.2
		C267.4,474.6,267.8,474.8,268.4,474.8z"/>
	<path class="st0" d="M284.6,478.5c-0.8,0-1.6-0.2-2.2-0.4c-0.6-0.3-1.1-0.6-1.5-1s-0.7-0.9-0.9-1.5s-0.4-1.2-0.5-1.9
		c-0.1-0.6-0.1-1.3-0.1-2.1V461h-2v-3.6h2v-6.2h5.5v6.2h3.1v3.6h-3.1v11.3c0,1.2,0.6,1.8,1.9,1.8h0.1c0.4,0,0.8,0,1.4-0.1v4.2
		c-1.4,0.2-2.6,0.3-3.4,0.3C284.8,478.5,284.7,478.5,284.6,478.5z"/>
	<path class="st0" d="M297.6,478.6c-2.3,0-4.1-0.6-5.2-1.9c-1.2-1.3-1.7-3.1-1.7-5.5v-6.7c0-2.4,0.6-4.2,1.8-5.5s2.9-1.9,5.2-1.9
		c2.4,0,4.1,0.6,5.1,1.9c1.1,1.3,1.6,3.2,1.6,5.7v3.5h-8.3v3.4c0,1,0.1,1.8,0.3,2.3s0.6,0.8,1.2,0.8c1.1,0,1.6-0.8,1.6-2.3v-1.9h5.1
		v1.7c0,2.1-0.6,3.7-1.7,4.8C301.4,478,299.8,478.6,297.6,478.6z M296.1,465.5h3.2v-2c0-0.9-0.1-1.5-0.4-1.9s-0.7-0.6-1.2-0.6
		s-1,0.2-1.2,0.7c-0.2,0.4-0.4,1.2-0.4,2.3L296.1,465.5L296.1,465.5z"/>
	<path class="st0" d="M314.1,478.6c-2.3,0-4-0.6-5.2-1.9c-1.2-1.3-1.7-3.1-1.7-5.4v-6.8c0-2.3,0.6-4.1,1.7-5.4
		c1.1-1.3,2.9-1.9,5.2-1.9c4.5,0,6.7,2.1,6.7,6.3v2h-5.2v-2.2c0-0.9-0.1-1.5-0.4-1.9c-0.2-0.4-0.6-0.5-1.1-0.5c-0.6,0-1,0.2-1.2,0.6
		c-0.2,0.4-0.3,1.2-0.3,2.3v8.1c0,1.1,0.1,1.8,0.4,2.2c0.2,0.4,0.6,0.6,1.2,0.6c0.5,0,0.9-0.2,1.1-0.6c0.2-0.4,0.3-1,0.3-1.8v-2.5
		h5.2v2.3c0,2.1-0.6,3.7-1.7,4.8C317.9,478,316.3,478.6,314.1,478.6z"/>
	<path class="st0" d="M329.8,478.5c-0.8,0-1.6-0.2-2.2-0.4c-0.6-0.3-1.1-0.6-1.5-1s-0.7-0.9-0.9-1.5s-0.4-1.2-0.5-1.9
		c-0.1-0.6-0.1-1.3-0.1-2.1V461h-2v-3.6h2v-6.2h5.5v6.2h3.1v3.6h-3.1v11.3c0,1.2,0.6,1.8,1.9,1.8h0.1c0.4,0,0.8,0,1.4-0.1v4.2
		c-1.4,0.2-2.6,0.3-3.4,0.3C329.9,478.5,329.8,478.5,329.8,478.5z"/>
	<path class="st0" d="M342,478.6c-3.5,0-5.8-1.8-6.9-5.4l3.9-1.6c0.7,2.1,1.6,3.2,2.8,3.2h0.1c0.4,0,0.8-0.2,1.1-0.5s0.4-0.6,0.4-1
		v-0.1c0-0.6-0.8-1.6-2.4-3l-2.1-1.8c-2.2-1.8-3.3-3.7-3.3-5.6c0-1.7,0.6-3.1,1.8-4.1s2.6-1.6,4.4-1.6c1.7,0,3,0.5,4.1,1.4
		c1.1,1,1.8,2.3,2.2,3.9l-3.5,1.6c-0.2-0.9-0.5-1.6-1-2.2c-0.4-0.6-0.9-0.9-1.6-0.9h-0.1c-0.4,0-0.8,0.1-1,0.4
		c-0.3,0.3-0.4,0.6-0.4,1c0,0.3,0.1,0.6,0.4,1c0.3,0.4,0.5,0.7,0.8,0.9s0.6,0.6,1.2,1.1l2.1,1.9c0.4,0.4,0.8,0.7,1,0.9
		c0.3,0.2,0.6,0.6,0.9,1c0.4,0.4,0.6,0.8,0.8,1.1c0.2,0.4,0.4,0.8,0.5,1.2c0.1,0.5,0.2,1,0.2,1.5c0,1.2-0.3,2.2-0.9,3.1
		c-0.6,0.9-1.4,1.5-2.3,1.9C344.3,478.4,343.2,478.6,342,478.6z"/>
	<path class="st0" d="M360.5,478.2v-29.1h5.9v29.1H360.5z"/>
	<path class="st0" d="M370.4,478.2v-20.8h5.4v2.1c1.7-1.6,3.4-2.4,5.1-2.4c1.2,0,2.1,0.4,2.7,1.3c0.6,0.9,0.9,2,0.9,3.3v16.4h-5.4
		v-15.5c0-0.6-0.1-1-0.3-1.3s-0.5-0.4-1-0.4c-0.6,0-1.2,0.3-2,0.8V478h-5.4V478.2z"/>
	<path class="st0" d="M388.1,478.2v-20.8h5.4v2.1c1.7-1.6,3.4-2.4,5.1-2.4c1.2,0,2.1,0.4,2.7,1.3c0.6,0.9,0.9,2,0.9,3.3v16.4h-5.4
		v-15.5c0-0.6-0.1-1-0.3-1.3s-0.5-0.4-1-0.4c-0.6,0-1.2,0.3-2,0.8V478h-5.4V478.2z"/>
	<path class="st0" d="M412.3,478.6c-2.2,0-4-0.6-5.2-1.8s-1.8-2.9-1.8-5.2v-7.4c0-2.3,0.6-4,1.8-5.2s2.9-1.8,5.2-1.8s4,0.6,5.2,1.8
		s1.8,2.9,1.8,5.2v7.4c0,2.3-0.6,4-1.8,5.2S414.6,478.6,412.3,478.6z M412.3,474.8c0.6,0,1.1-0.2,1.3-0.7s0.3-1.2,0.3-2.2v-8.2
		c0-1-0.1-1.7-0.3-2.2s-0.7-0.7-1.3-0.7s-1.1,0.3-1.3,0.8s-0.3,1.2-0.3,2.2v8.2c0,0.9,0.1,1.7,0.3,2.2
		C411.3,474.6,411.7,474.8,412.3,474.8z"/>
	<path class="st0" d="M425.3,478.2l-4.1-20.8h5.2l1.9,14.1l1.8-14.1h5.2l-4.1,20.8H425.3z"/>
	<path class="st0" d="M441.6,478.6c-0.9,0-1.8-0.3-2.5-0.8s-1.3-1.1-1.6-1.9c-0.4-0.7-0.5-1.5-0.5-2.4c0-0.5,0.1-1.1,0.2-1.5
		c0.1-0.5,0.2-0.9,0.4-1.3c0.2-0.4,0.4-0.8,0.6-1.1c0.3-0.4,0.5-0.7,0.8-0.9c0.2-0.3,0.6-0.5,1-0.8s0.8-0.5,1-0.7
		c0.3-0.2,0.7-0.4,1.1-0.6c0.5-0.2,0.8-0.4,1.1-0.5s0.7-0.3,1.1-0.4c0.5-0.2,0.8-0.3,1.1-0.4v-1.9c0-0.7-0.1-1.3-0.3-1.7
		s-0.6-0.6-1.1-0.6c-0.9,0-1.4,0.6-1.5,1.9l-0.1,1.4l-5.1-0.1c0-0.2,0-0.5,0.1-0.7c0.2-2.2,0.8-3.9,2-4.9s2.9-1.6,5.1-1.6
		c2,0,3.6,0.6,4.6,1.7c1,1.1,1.6,2.7,1.6,4.6v9.6c0,1.6,0.1,3.3,0.4,5.2h-4.9c-0.3-1.5-0.5-2.5-0.5-3c-0.3,0.9-0.8,1.7-1.4,2.4
		C443.6,478.2,442.7,478.6,441.6,478.6z M443.7,474.6c0.3,0,0.6-0.1,1-0.4c0.3-0.2,0.6-0.5,0.8-0.8v-5.7c-1,0.5-1.8,1.2-2.4,2
		c-0.6,0.8-1,1.7-1,2.5c0,0.7,0.1,1.3,0.4,1.7C442.8,474.4,443.2,474.6,443.7,474.6z"/>
	<path class="st0" d="M459.9,478.5c-0.8,0-1.6-0.2-2.2-0.4c-0.6-0.3-1.1-0.6-1.5-1s-0.7-0.9-0.9-1.5s-0.4-1.2-0.5-1.9
		c-0.1-0.6-0.1-1.3-0.1-2.1V461h-2v-3.6h2v-6.2h5.5v6.2h3.1v3.6h-3v11.3c0,1.2,0.6,1.8,1.9,1.8h0.1c0.4,0,0.8,0,1.4-0.1v4.2
		c-1.4,0.2-2.6,0.3-3.4,0.3C460.1,478.5,460,478.5,459.9,478.5z"/>
	<path class="st0" d="M466.5,454v-4.1h5.5v4.1H466.5z M466.5,478.2v-20.8h5.4v20.8H466.5z"/>
	<path class="st0" d="M482.3,478.6c-2.2,0-4-0.6-5.2-1.8s-1.8-2.9-1.8-5.2v-7.4c0-2.3,0.6-4,1.8-5.2s2.9-1.8,5.2-1.8s4,0.6,5.2,1.8
		s1.8,2.9,1.8,5.2v7.4c0,2.3-0.6,4-1.8,5.2C486.2,478,484.5,478.6,482.3,478.6z M482.3,474.8c0.6,0,1.1-0.2,1.3-0.7s0.3-1.2,0.3-2.2
		v-8.2c0-1-0.1-1.7-0.3-2.2s-0.7-0.7-1.3-0.7s-1.1,0.3-1.3,0.8s-0.3,1.2-0.3,2.2v8.2c0,0.9,0.1,1.7,0.3,2.2
		C481.2,474.6,481.6,474.8,482.3,474.8z"/>
	<path class="st0" d="M492.6,478.2v-20.8h5.4v2.1c1.7-1.6,3.4-2.4,5.1-2.4c1.2,0,2.1,0.4,2.7,1.3c0.6,0.9,0.9,2,0.9,3.3v16.4h-5.4
		v-15.5c0-0.6-0.1-1-0.3-1.3s-0.5-0.4-1-0.4c-0.6,0-1.2,0.3-2,0.8V478h-5.4V478.2z"/>
</g>
</svg>
