<?xml version="1.0" encoding="utf-8"?>
<!-- Generator: Adobe Illustrator 23.0.1, SVG Export Plug-In . SVG Version: 6.00 Build 0)  -->
<svg version="1.1" id="Layer_1" xmlns="http://www.w3.org/2000/svg" xmlns:xlink="http://www.w3.org/1999/xlink" x="0px" y="0px"
	 viewBox="0 0 666.6 163.8" style="enable-background:new 0 0 666.6 163.8;" xml:space="preserve">
<style type="text/css">
	.st0{fill:#515151;}
	.st1{fill:#359EEF;}
	.st2{fill:#349DEE;}
</style>
<g>
	<g>
		<g>
			<path class="st0" d="M67.9,0C78.2,10.6,91.4,17.9,105,23.5c7.7,3.1,15.5,5.6,23.5,7.6c2.2,0.5,4.4,0.8,6.7,1
				c1.1,9,0.8,18.2-0.1,27.2c-2.1,19-7.6,37.6-16.8,54.3c-10.1,18.1-24.6,33.7-41.9,45.1c-2.7,1.8-5.5,3.6-8.5,5.1
				c-13.2-7.6-25.2-17.2-35.2-28.8c-10.4-12-18.4-25.9-23.8-40.8C2.4,76.6-0.5,57.8,0.1,39.1c0-2.4,0.3-4.7,0.7-7.1
				c5.6-0.4,11.1-2.2,16.5-3.7c14.1-4.4,27.9-10.3,39.9-19C60.9,6.6,64.5,3.4,67.9,0z M48.7,21.5C35.3,28.8,20.9,34,6.1,37.3
				c-1,15.7,1.1,31.4,5.5,46.5c4.3,14.7,11.1,28.7,20.3,40.9c9.7,12.9,22.1,23.8,35.9,32.2c10.2-6,19.5-13.6,27.6-22.2
				c11.6-12.4,20.5-27.2,26.2-43.2c6.2-17.3,9-35.8,8.1-54.2c-8.1-1.9-16.1-4.2-23.8-7.2C92.2,25,79.1,18,67.9,8.3
				C61.9,13.4,55.5,17.9,48.7,21.5z"/>
		</g>
		<path class="st0" d="M10.8,45.4c38-0.1,75.9,0,113.9,0c0.1,2.2,0.1,4.4,0,6.5c-38,0-75.9,0-113.8,0C10.8,49.7,10.8,47.6,10.8,45.4
			z"/>
		<path class="st0" d="M11.1,56.7c17.9-0.1,35.8-0.1,53.7,0c0.1,24.9,0,49.9,0,74.8c0,5.8,0.1,11.6-0.1,17.4
			c-2.3-1.4-4.8-2.7-6.7-4.6c-0.4-1.8-0.2-3.7-0.2-5.6c0-25,0-50,0-75c-15.4-0.1-30.8,0-46.2-0.2C11.4,61.3,11.2,59,11.1,56.7z"/>
		<path class="st0" d="M70.1,56.7c18.1-0.1,36.3-0.1,54.4,0c0,2.3-0.2,4.5-0.4,6.8c-15.7,0.3-31.5,0-47.3,0.1
			c-0.2,27.2,0,54.4-0.1,81.5c-2.1,1.5-4.2,3-6.5,4.2c-0.2-23,0-46-0.1-69.1C70.1,72.5,70,64.6,70.1,56.7z"/>
	</g>
	<g>
		<path class="st1" d="M67.8,13.9C79.7,24.9,94.7,32,110.1,37c4.8,1.6,9.8,2.7,14.7,3.9c-37.9,0-75.7,0-113.6,0
			c15.5-3.5,30.7-8.9,44.2-17.4C59.8,20.7,63.9,17.4,67.8,13.9z"/>
		<path class="st1" d="M12.5,68.4c13.5,0,26.9,0,40.4,0.1c0.3,8.2,0,16.5,0.1,24.7c0,14.4,0,28.7,0,43.1c0,1.3,0,2.7-0.1,4
			c-5.4-4-10.1-8.9-14.5-14C27,113,18.9,96.8,14.7,79.7C13.8,76,12.9,72.2,12.5,68.4z"/>
		<path class="st1" d="M82,68.5c13.7,0,27.5,0,41.2,0c-3.6,23.7-14.3,46.6-31.3,63.7c-3.1,3.1-6.2,6.2-9.9,8.7
			c-0.3-10.3,0-20.6-0.1-30.9C82,96.2,81.7,82.3,82,68.5z"/>
	</g>
</g>
<g>
	<path class="st2" d="M158.5,45V34.5h52.1V45H191v49.8h-13.1V45H158.5z"/>
	<path class="st2" d="M231.9,50.4c6.3,0.1,10,1.5,11,4.4s1.5,6.7,1.4,11.5c0,0.4,0,0.9,0,1.3s0,0.9,0,1.4l-11.2-0.1
		c0-0.3,0-0.6,0-0.9s0-0.6,0-0.9c0-4.1-0.3-6.5-1-7.1c-0.6-0.7-3-1-7-1c-0.2,0-0.4,0-0.6,0s-0.4,0-0.6,0v35.7h-11.7V50.4H231.9
		L231.9,50.4z"/>
	<path class="st2" d="M248.4,45.4v-11h12.3v11H248.4z M248.4,94.7V50.4h12.3v44.3H248.4z"/>
	<path class="st2" d="M285.9,94.7c-6.6,0-11.8-1.9-15.5-5.6c-3.7-3.7-5.8-8.8-6.1-15.3c-0.1-3,0.2-5.9,0.9-8.7
		c0.7-2.8,2-5.4,3.9-7.8c2.3-2.9,4.9-4.7,7.9-5.5s6.2-1.3,9.6-1.3l10-0.1V34.3h11.7v60.3L285.9,94.7L285.9,94.7z M296.7,85.2V60
		c-0.4,0.1-0.9,0.1-1.3,0.1s-0.9,0-1.3,0c-0.6,0-1.1,0-1.7,0c-0.6,0-1.1,0-1.7,0c-1,0-2,0-3,0s-2,0.1-3,0.2
		c-0.9,0.1-1.8,0.3-2.6,0.8c-0.8,0.4-1.6,1-2.2,1.6c-1.2,1.2-2,2.5-2.5,4.1c-0.5,1.5-0.8,3.1-0.9,4.7c0,0.4,0,0.9,0,1.3s0,0.8,0,1.2
		c0.2,5.9,1.9,9.4,5.1,10.3c3.2,0.9,7.1,1.3,11.6,1.3c0.6-0.1,1.1-0.1,1.7-0.1C295.6,85.3,296.1,85.3,296.7,85.2L296.7,85.2z"/>
	<path class="st2" d="M325.8,93.6c-2.9-0.8-5.5-2.3-7.8-4.7c-1.8-2-3.1-4.2-3.9-6.7c-0.8-2.5-1.3-5.1-1.5-7.7c0-0.3,0-0.6,0-0.8
		c0-0.3,0-0.6,0-0.8c0-0.4,0-0.8,0-1.1c0-0.4,0-0.7,0.1-1.1c0.2-2.5,0.7-5,1.5-7.4c0.8-2.4,2.1-4.6,3.8-6.5c2.2-2.5,4.8-4.1,7.8-4.8
		c2.9-0.8,6-1.1,9.1-1.1l17.1-0.1V60h-15.5c-3.3,0.1-5.9,0.5-7.8,1.5c-2,0.9-3,3.2-3.1,6.9l26.4-0.1v9.2h-26.4
		c0.1,3.9,1.1,6.2,2.9,7.1c1.8,0.8,4.5,1.3,7.9,1.3l15.5-0.1V95h-17.1C331.8,94.7,328.8,94.4,325.8,93.6z"/>
	<path class="st2" d="M378.1,50.4c5.8,0.1,10.4,1.2,13.6,3.4c3.2,2.2,4.9,6.5,4.9,12.9v28h-11.7V68.1c0-3.1-0.5-5.2-1.5-6.2
		c-1-1.1-3.1-1.6-6.2-1.6l-9.4-0.1v34.5h-11.7V50.4L378.1,50.4L378.1,50.4z"/>
	<path class="st2" d="M455.4,58.9h30v35.8h-27.3c-3.5,0-6.8-0.3-10.1-0.9c-3.2-0.6-6.3-2-9.1-4.3c-3.4-2.7-5.7-6.1-7.1-10
		c-1.3-3.9-2.1-8-2.2-12.1c-0.1-0.9-0.1-1.8,0-2.6c0-0.8,0.1-1.7,0.1-2.5c0.6-9.5,3.2-16.5,7.8-21s11.4-6.7,20.5-6.7l27.3-0.1v10.3
		H458c-6,0.1-9.9,2.2-11.6,6.3c-1.8,4.2-2.6,8.8-2.6,13.7c0,0.1,0,0.1,0,0.1V65c0,5.1,0.9,9.5,2.6,13.2c1.8,3.7,5.6,5.5,11.6,5.5
		l14.3-0.1V69.4h-17L455.4,58.9L455.4,58.9z"/>
	<path class="st2" d="M511,50.4c6.3,0.1,10,1.5,11,4.4s1.5,6.7,1.4,11.5c0,0.4,0,0.9,0,1.3s0,0.9,0,1.4l-11.2-0.1c0-0.3,0-0.6,0-0.9
		s0-0.6,0-0.9c0-4.1-0.3-6.5-1-7.1c-0.6-0.7-3-1-7-1c-0.2,0-0.4,0-0.6,0s-0.4,0-0.6,0v35.7h-11.7V50.4H511L511,50.4z"/>
	<path class="st2" d="M564.9,89.4c-2.1,2.1-4.7,3.7-7.7,4.7s-6.1,1.5-9.3,1.5c-3.2,0-6.3-0.5-9.2-1.5c-3-1-5.5-2.5-7.6-4.6
		c-2.2-2.1-3.8-4.7-4.9-7.6c-1.1-3-1.6-6-1.6-9.2c0-3.1,0.5-6.2,1.6-9.2c1.1-3,2.7-5.5,4.9-7.6c2.1-2.1,4.7-3.6,7.7-4.7
		c3-1,6.1-1.6,9.3-1.6c3.1,0,6.2,0.5,9.2,1.6c3,1,5.6,2.6,7.7,4.7c2.2,2.1,3.8,4.7,4.9,7.6c1.1,3,1.6,6,1.6,9.2
		c0,3.1-0.5,6.2-1.6,9.2C568.8,84.8,567.1,87.4,564.9,89.4L564.9,89.4z M544,85.3c0.4,0.2,0.8,0.3,1.1,0.4c0.4,0.1,0.7,0.2,1.1,0.3
		c2.7,0.4,5.2-0.1,7.6-1.5c2.4-1.4,3.9-3.4,4.7-6.1c0.3-1,0.5-2,0.6-3.1c0.1-1.1,0.2-2.2,0.2-3.3c-0.1-2.5-0.7-4.8-1.8-7
		s-2.8-3.8-5.1-4.8c-0.5-0.2-1-0.4-1.6-0.5c-0.6-0.1-1.1-0.2-1.6-0.3c-2.6-0.2-5,0.4-7.2,1.8s-3.8,3.4-4.5,5.9c-0.3,1-0.5,1.9-0.6,3
		c-0.1,1-0.2,2.1-0.1,3.1c0.1,2.6,0.7,5.1,1.8,7.4C539.7,82.8,541.5,84.5,544,85.3L544,85.3z"/>
	<path class="st2" d="M593.4,94.7c-5.7,0-10.1-1.1-13.4-3.4c-3.3-2.2-5-6.5-5-12.8V50.3h11.7v27.1c0,3,0.6,5,1.7,6
		c1.1,1,3.1,1.5,6,1.5l9.4-0.1V50.3h11.7v44.3h-22.1V94.7z"/>
	<path class="st2" d="M645.1,50.4c6.6,0.1,11.8,2,15.5,5.7c3.7,3.8,5.7,8.9,6,15.4c0.2,3-0.1,5.9-0.8,8.7c-0.7,2.9-2,5.4-3.9,7.7
		c-2.2,2.9-4.9,4.8-7.9,5.5c-3,0.8-6.2,1.2-9.7,1.2h-10.1v16h-11.7V50.3L645.1,50.4L645.1,50.4z M634.3,60v25.2
		c0.4,0.1,0.8,0.1,1.1,0.1c0.4,0,0.7,0,1.1,0c5.4,0.1,9.7-0.5,13.1-1.6c3.4-1.1,5-5.2,4.8-12.2c-0.2-5.9-1.8-9.3-5-10.2
		s-7-1.3-11.5-1.3c-0.6,0.1-1.2,0.1-1.8,0.1S634.9,60.1,634.3,60L634.3,60z"/>
</g>
<g>
	<path class="st0" d="M165,145.7l-3.8-29.1h5l2,17.7l2.6-17.7h3.9l2.7,17.7l2-17.7h4.9l-3.8,29.1h-5l-2.8-18.4l-2.8,18.4H165z"/>
	<path class="st0" d="M187.5,145.7v-29.1h5.4v10.2c1.5-1.5,3.2-2.3,5.1-2.3c1.2,0,2.1,0.4,2.7,1.3c0.6,0.9,0.9,2,0.9,3.3v16.4h-5.4
		V130c0-0.6-0.1-1-0.3-1.3s-0.5-0.4-0.9-0.4c0,0,0,0-0.1,0c-0.5,0-1.2,0.3-2.1,0.9v16.3h-5.3V145.7z"/>
	<path class="st0" d="M211.8,146.1c-2.3,0-4.1-0.6-5.2-1.9c-1.2-1.3-1.7-3.1-1.7-5.5V132c0-2.4,0.6-4.2,1.8-5.5
		c1.2-1.3,2.9-1.9,5.2-1.9c2.4,0,4.1,0.6,5.1,1.9c1.1,1.3,1.6,3.2,1.6,5.7v3.5h-8.3v3.4c0,1,0.1,1.8,0.3,2.3s0.6,0.8,1.2,0.8
		c1.1,0,1.6-0.8,1.6-2.3V138h5.1v1.7c0,2.1-0.6,3.7-1.7,4.8C215.6,145.5,213.9,146.1,211.8,146.1z M210.2,133h3.2v-2
		c0-0.9-0.1-1.5-0.4-1.9s-0.7-0.6-1.2-0.6s-1,0.2-1.2,0.7c-0.2,0.4-0.4,1.2-0.4,2.3V133L210.2,133z"/>
	<path class="st0" d="M221.8,145.7v-20.8h5.4v3.3c1.3-2.4,2.7-3.6,4.2-3.6c0.2,0,0.5,0,0.8,0.1v5c-0.4-0.1-0.8-0.2-1.3-0.2
		c-0.8,0-1.5,0.2-2.1,0.6c-0.6,0.4-1.2,1-1.7,1.7v13.7h-5.3V145.7z"/>
	<path class="st0" d="M241.1,146.1c-2.3,0-4.1-0.6-5.2-1.9c-1.2-1.3-1.7-3.1-1.7-5.5V132c0-2.4,0.6-4.2,1.8-5.5
		c1.2-1.3,2.9-1.9,5.2-1.9c2.4,0,4.1,0.6,5.1,1.9c1.1,1.3,1.6,3.2,1.6,5.7v3.5h-8.3v3.4c0,1,0.1,1.8,0.3,2.3
		c0.2,0.5,0.6,0.8,1.2,0.8c1.1,0,1.6-0.8,1.6-2.3V138h5.1v1.7c0,2.1-0.6,3.7-1.7,4.8C244.9,145.5,243.3,146.1,241.1,146.1z
		 M239.6,133h3.2v-2c0-0.9-0.1-1.5-0.4-1.9s-0.7-0.6-1.2-0.6c-0.6,0-1,0.2-1.2,0.7c-0.2,0.4-0.4,1.2-0.4,2.3V133L239.6,133z"/>
	<path class="st0" d="M267.9,146.1c-2.7,0-4.7-0.7-6.1-2.2c-1.3-1.5-2.1-3.8-2.2-6.8l5.1-0.9c0,1.8,0.3,3.2,0.7,4.1
		c0.5,0.9,1.2,1.4,2.1,1.4c0.7,0,1.2-0.2,1.5-0.7c0.3-0.4,0.5-1,0.5-1.7c0-1.1-0.2-2.1-0.7-2.9s-1.3-1.6-2.4-2.6l-3.1-2.7
		c-0.8-0.7-1.4-1.3-1.9-1.9s-0.9-1.4-1.2-2.3c-0.3-0.9-0.5-2-0.5-3.1c0-2.4,0.7-4.2,2.1-5.5c1.4-1.3,3.3-1.9,5.7-2
		c0.8,0,1.6,0.1,2.2,0.2c0.7,0.2,1.3,0.4,1.7,0.7c0.5,0.3,0.9,0.6,1.3,1.1c0.4,0.4,0.7,0.9,0.9,1.3c0.2,0.5,0.4,1,0.6,1.5
		c0.2,0.6,0.3,1.1,0.4,1.6c0.1,0.5,0.1,1.1,0.2,1.7l-5.1,0.8c0-0.6-0.1-1.1-0.1-1.5s-0.1-0.8-0.2-1.2c-0.1-0.4-0.2-0.8-0.4-1
		s-0.4-0.4-0.7-0.6c-0.3-0.2-0.6-0.2-1-0.2c-0.7,0-1.2,0.3-1.5,0.8c-0.4,0.5-0.5,1-0.5,1.7c0,0.5,0.1,1,0.2,1.4s0.3,0.8,0.6,1.2
		c0.3,0.4,0.5,0.7,0.8,0.9c0.2,0.2,0.6,0.5,1,0.9l3.1,2.7c0.7,0.6,1.2,1.2,1.7,1.7s0.9,1.2,1.4,1.9c0.4,0.7,0.8,1.5,1,2.3
		c0.2,0.8,0.3,1.7,0.3,2.7c0,2.1-0.7,3.9-2.1,5.2C272,145.4,270.2,146.1,267.9,146.1z"/>
	<path class="st0" d="M284.8,146.1c-2.3,0-4.1-0.6-5.2-1.9c-1.2-1.3-1.7-3.1-1.7-5.5V132c0-2.4,0.6-4.2,1.8-5.5s2.9-1.9,5.2-1.9
		c2.4,0,4.1,0.6,5.1,1.9c1.1,1.3,1.6,3.2,1.6,5.7v3.5h-8.3v3.4c0,1,0.1,1.8,0.3,2.3c0.2,0.5,0.6,0.8,1.2,0.8c1.1,0,1.6-0.8,1.6-2.3
		V138h5.1v1.7c0,2.1-0.6,3.7-1.7,4.8C288.6,145.5,286.9,146.1,284.8,146.1z M283.2,133h3.2v-2c0-0.9-0.1-1.5-0.4-1.9
		c-0.3-0.4-0.7-0.6-1.2-0.6c-0.6,0-1,0.2-1.2,0.7c-0.2,0.4-0.4,1.2-0.4,2.3V133L283.2,133z"/>
	<path class="st0" d="M301.2,146.1c-2.3,0-4-0.6-5.2-1.9c-1.2-1.3-1.7-3.1-1.7-5.4V132c0-2.3,0.6-4.1,1.7-5.4s2.9-1.9,5.2-1.9
		c4.5,0,6.7,2.1,6.7,6.3v2h-5.2v-2.2c0-0.9-0.1-1.5-0.4-1.9c-0.2-0.4-0.6-0.5-1.1-0.5c-0.6,0-1,0.2-1.2,0.6
		c-0.2,0.4-0.3,1.2-0.3,2.3v8.1c0,1.1,0.1,1.8,0.4,2.2c0.2,0.4,0.6,0.6,1.2,0.6c0.5,0,0.9-0.2,1.1-0.6c0.2-0.4,0.3-1,0.3-1.8v-2.5
		h5.2v2.3c0,2.1-0.6,3.7-1.7,4.8C305.1,145.5,303.4,146.1,301.2,146.1z"/>
	<path class="st0" d="M314.5,146c-1.2,0-2.1-0.4-2.7-1.3s-0.9-2-0.9-3.3V125h5.4v15.6c0,0.6,0.1,1,0.3,1.3c0.2,0.3,0.5,0.4,0.9,0.4
		c0,0,0,0,0.1,0c0.5,0,1.2-0.3,1.9-0.7V125h5.4v20.8h-5.4v-2C317.9,145.3,316.2,146,314.5,146z"/>
	<path class="st0" d="M328.7,145.7v-20.8h5.4v3.3c1.3-2.4,2.7-3.6,4.2-3.6c0.2,0,0.5,0,0.8,0.1v5c-0.4-0.1-0.8-0.2-1.3-0.2
		c-0.8,0-1.5,0.2-2.1,0.6s-1.2,1-1.7,1.7v13.7h-5.3V145.7L328.7,145.7z"/>
	<path class="st0" d="M341.6,121.5v-4.1h5.5v4.1H341.6z M341.7,145.7v-20.8h5.4v20.8H341.7z"/>
	<path class="st0" d="M356.7,146c-0.8,0-1.6-0.2-2.2-0.4c-0.6-0.3-1.1-0.6-1.5-1s-0.7-0.9-0.9-1.5c-0.2-0.6-0.4-1.2-0.5-1.9
		c-0.1-0.6-0.1-1.3-0.1-2.1v-10.6h-2v-3.6h2v-6.2h5.5v6.2h3.1v3.6H357v11.3c0,1.2,0.6,1.8,1.9,1.8h0.1c0.4,0,0.8,0,1.4-0.1v4.2
		c-1.4,0.2-2.6,0.3-3.4,0.3C356.9,146,356.8,146,356.7,146z"/>
	<path class="st0" d="M363.5,151.5v-3.8c1.4,0,2.3-0.1,2.8-0.4c0.4-0.2,0.6-0.6,0.6-1.3c0-0.1,0-0.3,0-0.4c-0.1-0.6-0.3-1.7-0.7-3.2
		c-0.2-0.9-1-3.8-2.3-8.7c-1.3-4.9-2.1-7.8-2.3-8.7h5.2l2.6,12.7l2.1-12.7h5.2l-4.9,21.9c-0.7,3.1-3.1,4.7-7.2,4.7
		c-0.1,0-0.1,0-0.2,0L363.5,151.5L363.5,151.5z"/>
	<path class="st0" d="M388.1,145.7v-29.1h9.1c5.1,0,7.6,2.8,7.6,8.4c0,1.5-0.2,2.8-0.6,3.9s-1,1.9-1.7,2.5c-0.7,0.6-1.6,1-2.5,1.3
		s-2,0.4-3.3,0.4h-2.6v12.7L388.1,145.7L388.1,145.7z M394,128.9h1.9c1.3,0,2.2-0.3,2.6-0.9c0.4-0.6,0.7-1.6,0.7-3.1
		c0-0.8,0-1.4-0.1-1.8s-0.2-0.9-0.4-1.2c-0.2-0.4-0.5-0.7-1-0.8c-0.5-0.2-1-0.2-1.8-0.2H394V128.9z"/>
	<path class="st0" d="M407.5,145.7v-20.8h5.4v3.3c1.3-2.4,2.7-3.6,4.2-3.6c0.2,0,0.5,0,0.8,0.1v5c-0.4-0.1-0.8-0.2-1.3-0.2
		c-0.8,0-1.5,0.2-2.1,0.6s-1.2,1-1.7,1.7v13.7h-5.3V145.7z"/>
	<path class="st0" d="M426.9,146.1c-2.2,0-4-0.6-5.2-1.8s-1.8-2.9-1.8-5.2v-7.4c0-2.3,0.6-4,1.8-5.2s2.9-1.8,5.2-1.8s4,0.6,5.2,1.8
		s1.8,2.9,1.8,5.2v7.4c0,2.3-0.6,4-1.8,5.2S429.1,146.1,426.9,146.1z M426.9,142.3c0.6,0,1.1-0.2,1.3-0.7s0.3-1.2,0.3-2.2v-8.2
		c0-1-0.1-1.7-0.3-2.2s-0.7-0.7-1.3-0.7s-1.1,0.3-1.3,0.8s-0.3,1.2-0.3,2.2v8.2c0,0.9,0.1,1.7,0.3,2.2
		C425.9,142.1,426.3,142.3,426.9,142.3z"/>
	<path class="st0" d="M443.1,146c-0.8,0-1.6-0.2-2.2-0.4c-0.6-0.3-1.1-0.6-1.5-1s-0.7-0.9-0.9-1.5s-0.4-1.2-0.5-1.9
		c-0.1-0.6-0.1-1.3-0.1-2.1v-10.6h-2v-3.6h2v-6.2h5.5v6.2h3.1v3.6h-3.1v11.3c0,1.2,0.6,1.8,1.9,1.8h0.1c0.4,0,0.8,0,1.4-0.1v4.2
		c-1.4,0.2-2.6,0.3-3.4,0.3C443.3,146,443.2,146,443.1,146z"/>
	<path class="st0" d="M456.1,146.1c-2.3,0-4.1-0.6-5.2-1.9c-1.2-1.3-1.7-3.1-1.7-5.5V132c0-2.4,0.6-4.2,1.8-5.5s2.9-1.9,5.2-1.9
		c2.4,0,4.1,0.6,5.1,1.9c1.1,1.3,1.6,3.2,1.6,5.7v3.5h-8.3v3.4c0,1,0.1,1.8,0.3,2.3s0.6,0.8,1.2,0.8c1.1,0,1.6-0.8,1.6-2.3V138h5.1
		v1.7c0,2.1-0.6,3.7-1.7,4.8C459.9,145.5,458.3,146.1,456.1,146.1z M454.6,133h3.2v-2c0-0.9-0.1-1.5-0.4-1.9s-0.7-0.6-1.2-0.6
		s-1,0.2-1.2,0.7c-0.2,0.4-0.4,1.2-0.4,2.3V133L454.6,133z"/>
	<path class="st0" d="M472.6,146.1c-2.3,0-4-0.6-5.2-1.9s-1.7-3.1-1.7-5.4V132c0-2.3,0.6-4.1,1.7-5.4s2.9-1.9,5.2-1.9
		c4.5,0,6.7,2.1,6.7,6.3v2h-5.2v-2.2c0-0.9-0.1-1.5-0.4-1.9c-0.2-0.4-0.6-0.5-1.1-0.5c-0.6,0-1,0.2-1.2,0.6s-0.3,1.2-0.3,2.3v8.1
		c0,1.1,0.1,1.8,0.4,2.2c0.2,0.4,0.6,0.6,1.2,0.6c0.5,0,0.9-0.2,1.1-0.6s0.3-1,0.3-1.8v-2.5h5.2v2.3c0,2.1-0.6,3.7-1.7,4.8
		C476.4,145.5,474.8,146.1,472.6,146.1z"/>
	<path class="st0" d="M488.3,146c-0.8,0-1.6-0.2-2.2-0.4c-0.6-0.3-1.1-0.6-1.5-1s-0.7-0.9-0.9-1.5s-0.4-1.2-0.5-1.9
		c-0.1-0.6-0.1-1.3-0.1-2.1v-10.6h-2v-3.6h2v-6.2h5.5v6.2h3.1v3.6h-3.1v11.3c0,1.2,0.6,1.8,1.9,1.8h0.1c0.4,0,0.8,0,1.4-0.1v4.2
		c-1.4,0.2-2.6,0.3-3.4,0.3C488.4,146,488.3,146,488.3,146z"/>
	<path class="st0" d="M500.5,146.1c-3.5,0-5.8-1.8-6.9-5.4l3.9-1.6c0.7,2.1,1.6,3.2,2.8,3.2h0.1c0.4,0,0.8-0.2,1.1-0.5
		s0.4-0.6,0.4-1v-0.1c0-0.6-0.8-1.6-2.4-3l-2.1-1.8c-2.2-1.8-3.3-3.7-3.3-5.6c0-1.7,0.6-3.1,1.8-4.1s2.6-1.6,4.4-1.6
		c1.7,0,3,0.5,4.1,1.4c1.1,1,1.8,2.3,2.2,3.9l-3.5,1.6c-0.2-0.9-0.5-1.6-1-2.2c-0.4-0.6-0.9-0.9-1.6-0.9h-0.1c-0.4,0-0.8,0.1-1,0.4
		c-0.3,0.3-0.4,0.6-0.4,1c0,0.3,0.1,0.6,0.4,1s0.5,0.7,0.8,0.9s0.6,0.6,1.2,1.1l2.1,1.9c0.4,0.4,0.8,0.7,1,0.9
		c0.3,0.2,0.6,0.6,0.9,1c0.4,0.4,0.6,0.8,0.8,1.1c0.2,0.4,0.4,0.8,0.5,1.2c0.1,0.5,0.2,1,0.2,1.5c0,1.2-0.3,2.2-0.9,3.1
		s-1.4,1.5-2.3,1.9C502.8,145.9,501.7,146.1,500.5,146.1z"/>
	<path class="st0" d="M519,145.7v-29.1h5.9v29.1H519z"/>
	<path class="st0" d="M528.9,145.7v-20.8h5.4v2.1c1.7-1.6,3.4-2.4,5.1-2.4c1.2,0,2.1,0.4,2.7,1.3c0.6,0.9,0.9,2,0.9,3.3v16.4h-5.4
		v-15.5c0-0.6-0.1-1-0.3-1.3c-0.2-0.3-0.5-0.4-1-0.4c-0.6,0-1.2,0.3-2,0.8v16.3h-5.4L528.9,145.7L528.9,145.7z"/>
	<path class="st0" d="M546.6,145.7v-20.8h5.4v2.1c1.7-1.6,3.4-2.4,5.1-2.4c1.2,0,2.1,0.4,2.7,1.3c0.6,0.9,0.9,2,0.9,3.3v16.4h-5.4
		v-15.5c0-0.6-0.1-1-0.3-1.3c-0.2-0.3-0.5-0.4-1-0.4c-0.6,0-1.2,0.3-2,0.8v16.3h-5.4L546.6,145.7L546.6,145.7z"/>
	<path class="st0" d="M570.8,146.1c-2.2,0-4-0.6-5.2-1.8s-1.8-2.9-1.8-5.2v-7.4c0-2.3,0.6-4,1.8-5.2c1.2-1.2,2.9-1.8,5.2-1.8
		c2.3,0,4,0.6,5.2,1.8s1.8,2.9,1.8,5.2v7.4c0,2.3-0.6,4-1.8,5.2C574.8,145.5,573.1,146.1,570.8,146.1z M570.8,142.3
		c0.6,0,1.1-0.2,1.3-0.7c0.2-0.5,0.3-1.2,0.3-2.2v-8.2c0-1-0.1-1.7-0.3-2.2c-0.2-0.5-0.7-0.7-1.3-0.7s-1.1,0.3-1.3,0.8
		c-0.2,0.5-0.3,1.2-0.3,2.2v8.2c0,0.9,0.1,1.7,0.3,2.2C569.8,142.1,570.2,142.3,570.8,142.3z"/>
	<path class="st0" d="M583.8,145.7l-4.1-20.8h5.2l1.9,14.1l1.8-14.1h5.2l-4.1,20.8H583.8z"/>
	<path class="st0" d="M600.1,146.1c-0.9,0-1.8-0.3-2.5-0.8s-1.3-1.1-1.6-1.9c-0.4-0.7-0.5-1.5-0.5-2.4c0-0.5,0.1-1.1,0.2-1.5
		c0.1-0.5,0.2-0.9,0.4-1.3c0.2-0.4,0.4-0.8,0.6-1.1c0.3-0.4,0.5-0.7,0.8-0.9c0.2-0.3,0.6-0.5,1-0.8c0.4-0.3,0.8-0.5,1-0.7
		c0.3-0.2,0.7-0.4,1.1-0.6c0.5-0.2,0.8-0.4,1.1-0.5c0.3-0.1,0.7-0.3,1.1-0.4c0.5-0.2,0.8-0.3,1.1-0.4v-1.9c0-0.7-0.1-1.3-0.3-1.7
		c-0.2-0.4-0.6-0.6-1.1-0.6c-0.9,0-1.4,0.6-1.5,1.9l-0.1,1.4l-5.1-0.1c0-0.2,0-0.5,0.1-0.7c0.2-2.2,0.8-3.9,2-4.9s2.9-1.6,5.1-1.6
		c2,0,3.6,0.6,4.6,1.7s1.6,2.7,1.6,4.6v9.6c0,1.6,0.1,3.3,0.4,5.2h-4.9c-0.3-1.5-0.5-2.5-0.5-3c-0.3,0.9-0.8,1.7-1.4,2.4
		C602.1,145.7,601.2,146.1,600.1,146.1z M602.2,142.1c0.3,0,0.6-0.1,1-0.4c0.3-0.2,0.6-0.5,0.8-0.8v-5.7c-1,0.5-1.8,1.2-2.4,2
		c-0.6,0.8-1,1.7-1,2.5c0,0.7,0.1,1.3,0.4,1.7C601.3,141.9,601.7,142.1,602.2,142.1z"/>
	<path class="st0" d="M618.4,146c-0.8,0-1.6-0.2-2.2-0.4c-0.6-0.3-1.1-0.6-1.5-1c-0.4-0.4-0.7-0.9-0.9-1.5c-0.2-0.6-0.4-1.2-0.5-1.9
		c-0.1-0.6-0.1-1.3-0.1-2.1v-10.6h-2v-3.6h2v-6.2h5.5v6.2h3.1v3.6h-3v11.3c0,1.2,0.6,1.8,1.9,1.8h0.1c0.4,0,0.8,0,1.4-0.1v4.2
		c-1.4,0.2-2.6,0.3-3.4,0.3C618.6,146,618.5,146,618.4,146z"/>
	<path class="st0" d="M625,121.5v-4.1h5.5v4.1H625z M625,145.7v-20.8h5.4v20.8H625z"/>
	<path class="st0" d="M640.8,146.1c-2.2,0-4-0.6-5.2-1.8s-1.8-2.9-1.8-5.2v-7.4c0-2.3,0.6-4,1.8-5.2c1.2-1.2,2.9-1.8,5.2-1.8
		c2.3,0,4,0.6,5.2,1.8s1.8,2.9,1.8,5.2v7.4c0,2.3-0.6,4-1.8,5.2C644.7,145.5,643,146.1,640.8,146.1z M640.8,142.3
		c0.6,0,1.1-0.2,1.3-0.7c0.2-0.5,0.3-1.2,0.3-2.2v-8.2c0-1-0.1-1.7-0.3-2.2c-0.2-0.5-0.7-0.7-1.3-0.7s-1.1,0.3-1.3,0.8
		c-0.2,0.5-0.3,1.2-0.3,2.2v8.2c0,0.9,0.1,1.7,0.3,2.2C639.7,142.1,640.1,142.3,640.8,142.3z"/>
	<path class="st0" d="M651.1,145.7v-20.8h5.4v2.1c1.7-1.6,3.4-2.4,5.1-2.4c1.2,0,2.1,0.4,2.7,1.3c0.6,0.9,0.9,2,0.9,3.3v16.4h-5.4
		v-15.5c0-0.6-0.1-1-0.3-1.3c-0.2-0.3-0.5-0.4-1-0.4c-0.6,0-1.2,0.3-2,0.8v16.3h-5.4L651.1,145.7L651.1,145.7z"/>
</g>
</svg>
