<?xml version="1.0" encoding="utf-8"?>
<!-- Generator: Adobe Illustrator 23.0.1, SVG Export Plug-In . SVG Version: 6.00 Build 0)  -->
<svg version="1.1" id="Layer_1" xmlns="http://www.w3.org/2000/svg" xmlns:xlink="http://www.w3.org/1999/xlink" x="0px" y="0px"
	 viewBox="0 0 343.3 343.3" style="enable-background:new 0 0 343.3 343.3;" xml:space="preserve">
<style type="text/css">
	.st0{fill:#515151;}
	.st1{fill:#359EEF;}
</style>
<g>
	<g>
		<g>
			<path class="st0" d="M171.8-1c21.6,22.1,49.1,37.5,77.6,49c16,6.4,32.4,11.8,49.2,15.8c4.5,1.1,9.2,1.6,13.9,2.1
				c2.3,18.9,1.6,38-0.2,56.9c-4.3,39.6-15.8,78.6-35.2,113.5c-21,37.9-51.5,70.4-87.6,94.3c-5.7,3.8-11.5,7.6-17.7,10.7
				c-27.6-15.8-52.7-36-73.5-60.1c-21.7-25-38.5-54.1-49.8-85.3c-13.4-36.8-19.6-76.1-18.3-115.2c0.1-5,0.7-9.9,1.5-14.9
				c11.8-0.9,23.1-4.5,34.4-7.8c29.4-9.2,58.2-21.6,83.4-39.6C157.3,12.7,164.7,6,171.8-1z M131.8,44c-28,15.1-58.1,26-89.1,33
				c-2,32.7,2.4,65.7,11.5,97.1c9,30.7,23.2,60,42.5,85.5c20.3,27,46.1,49.8,75,67.3c21.3-12.6,40.7-28.4,57.7-46.3
				c24.3-25.9,42.9-56.9,54.8-90.2c12.9-36.2,18.8-74.9,17-113.3c-16.9-3.9-33.6-8.8-49.8-15c-28.7-10.9-56.2-25.5-79.5-45.7
				C159.4,27,146,36.3,131.8,44z"/>
		</g>
		<path class="st0" d="M52.7,93.9c79.3-0.2,158.6-0.1,237.9,0c0.2,4.5,0.2,9.1-0.1,13.6c-79.3,0-158.5,0-237.8,0
			C52.6,102.9,52.6,98.4,52.7,93.9z"/>
		<path class="st0" d="M53.3,117.5c37.4-0.2,74.9-0.2,112.3,0c0.2,52.1,0,104.2,0.1,156.3c-0.1,12.1,0.2,24.3-0.2,36.4
			c-4.8-2.9-10-5.6-14-9.7c-0.9-3.8-0.4-7.8-0.5-11.7c0.1-52.3-0.1-104.5,0.1-156.8c-32.2-0.3-64.4-0.1-96.6-0.4
			C53.9,127,53.5,122.2,53.3,117.5z"/>
		<path class="st0" d="M176.4,117.5c37.9-0.2,75.8-0.2,113.6,0c-0.1,4.8-0.5,9.5-0.9,14.3c-32.9,0.6-65.9,0.1-98.8,0.3
			c-0.4,56.8,0.1,113.6-0.2,170.3c-4.4,3.1-8.8,6.2-13.6,8.7c-0.4-48.1,0-96.2-0.2-144.3C176.4,150.4,176.2,133.9,176.4,117.5z"/>
	</g>
	<g>
		<path class="st1" d="M171.7,28c24.9,23.1,56.2,37.9,88.3,48.3c10.1,3.3,20.4,5.7,30.7,8.2c-79.1,0-158.2,0.1-237.3-0.1
			c32.4-7.4,64.2-18.6,92.4-36.3C155,42.3,163.6,35.4,171.7,28z"/>
		<path class="st1" d="M56.2,141.9c28.2,0.1,56.3,0.1,84.5,0.2c0.6,17.2,0.1,34.5,0.2,51.7c0,30,0,60,0,90c0,2.8-0.1,5.6-0.3,8.4
			c-11.3-8.4-21.1-18.7-30.3-29.2c-23.9-27.9-40.7-61.8-49.5-97.4C58.8,157.8,57,149.9,56.2,141.9z"/>
		<path class="st1" d="M201.3,142.1c28.7,0,57.4-0.1,86.1,0.1c-7.5,49.6-29.9,97.4-65.5,133.1c-6.5,6.4-13,13-20.6,18.1
			c-0.6-21.5-0.1-43-0.3-64.5C201.3,199.9,200.8,171,201.3,142.1z"/>
	</g>
</g>
</svg>
