<?xml version="1.0" encoding="utf-8"?>
<!-- Generator: Adobe Illustrator 23.0.1, SVG Export Plug-In . SVG Version: 6.00 Build 0)  -->
<svg version="1.1" id="Layer_1" xmlns="http://www.w3.org/2000/svg" xmlns:xlink="http://www.w3.org/1999/xlink" x="0px" y="0px"
	 viewBox="0 0 72.8 86.4" style="enable-background:new 0 0 72.8 86.4;" xml:space="preserve">
<style type="text/css">
	.st0{fill:#5E5F5F;}
	.st1{fill:#FCFDFE;}
	.st2{fill:#3BA0EE;}
</style>
<path class="st0" d="M0.2,24.9c0-0.7,0.1-1.3,0-2c-0.9-4.8,1-6.8,6-7.9c10.5-2.3,20.2-6.7,28.3-14c1.6-1.4,2.6-1.3,4.1,0
	c8.8,8,19.5,12.2,30.7,14.8c2.8,0.6,3.5,1.8,3.5,4.3C73,47.9,62.6,70.2,38.9,85.6c-2.4,1.6-4,0.5-5.8-0.6
	C11.6,70.8,1.5,50.3,0.2,24.9z M69.7,24.8c1.2-3.9-1.1-6-6.4-7.3c-8.9-2.2-17.2-6.2-24.5-11.9c-1.4-1.1-2.4-1.9-4.2-0.4
	c-8.3,6.8-18,10.6-28.2,13.3c-2.4,0.6-3.2,1.6-3.1,4.1C3.9,46.9,13,66.7,33.1,81.1c2.7,1.9,4.5,1.6,6.9-0.2C59,67.5,68,49,69.7,24.8
	z"/>
<path class="st1" d="M69.7,24.8C68,49,59,67.5,40.1,80.9c-2.5,1.8-4.3,2.1-6.9,0.2C13,66.8,4,46.9,3.4,22.6
	c-0.1-2.4,0.7-3.4,3.1-4.1C16.7,15.9,26.4,12,34.6,5.3c1.8-1.5,2.8-0.7,4.2,0.4c7.3,5.7,15.6,9.7,24.5,11.9
	C68.5,18.9,70.9,20.9,69.7,24.8z M44.1,74.6c11.8-9.8,18.2-21.2,21.3-34.8c0.6-2.5,0.4-4.1-2.9-4c-5.1,0.2-10.3,0.1-15.4,0
	c-2.1,0-2.9,0.7-2.9,2.9C44.2,50.3,44.1,61.9,44.1,74.6z M28.5,74.3c0-12.6,0-24.1,0-35.5c0-2.1-0.8-3-2.9-2.9
	c-5.3,0.1-10.6,0.1-16,0c-2,0-2.7,0.7-2.3,2.7C10.3,52.5,16.7,64.3,28.5,74.3z M64.3,21c-5.7-2.2-10.3-4-14.9-5.8
	c-4.8-1.9-8.8-7.7-13-7.4c-4.3,0.3-8.3,5.6-13.1,7.6C18.9,17.2,14.5,18.9,9,21C27.8,21,45.5,21,64.3,21z M37.6,78.7
	c3.8-0.8,3.8-3.1,3.8-5.5c0-12,0.1-24-0.1-36c0-3,0.7-4.1,3.9-4c6.1,0.2,12.3,0.1,18.5,0.1c1.3,0,2.8,0.3,3-1.7
	c0.2-2.1-1.4-1.9-2.6-1.9c-7.8,0-15.6,0-23.5,0c-2.1,0-2.9,0.8-2.9,2.9C37.6,47.8,37.6,63.1,37.6,78.7z M35.1,54.5
	c0-7.2-0.1-14.3,0-21.5c0.1-2.6-0.8-3.5-3.4-3.4c-7.3,0.1-14.7,0-22,0.1c-1.3,0-3.3-0.9-3.4,1.6c-0.1,2.4,1.8,1.9,3.2,1.9
	c5.8,0.1,11.7,0.2,17.5,0c3.3-0.1,4.3,0.8,4.3,4.2c-0.2,11.5-0.1,23-0.1,34.5c0,1.3-0.1,2.7,0.2,4c0.3,1.4,1.5,2.4,2.9,2.1
	c1.3-0.2,0.8-1.6,0.8-2.5C35.1,68.5,35.1,61.5,35.1,54.5z M36.3,27.1c9,0,18,0,27,0c1.3,0,3.4,0.8,3.6-1.4c0.2-2.7-2.2-2-3.6-2
	c-17.8-0.1-35.6-0.1-53.4,0c-1.4,0-3.8-0.8-3.5,2c0.2,2.3,2.3,1.4,3.6,1.4C18.6,27.1,27.5,27.1,36.3,27.1z"/>
<path class="st2" d="M44.1,74.6c0-12.7,0-24.3,0-35.8c0-2.1,0.8-2.9,2.9-2.9c5.1,0.1,10.3,0.2,15.4,0c3.3-0.1,3.5,1.5,2.9,4
	C62.4,53.4,55.9,64.8,44.1,74.6z"/>
<path class="st2" d="M28.5,74.3c-11.8-10-18.2-21.8-21.1-35.7c-0.4-1.9,0.3-2.7,2.3-2.7c5.3,0.1,10.6,0.1,16,0
	c2.1,0,2.9,0.8,2.9,2.9C28.5,50.3,28.5,61.7,28.5,74.3z"/>
<path class="st2" d="M64.3,21C45.5,21,27.9,21,9,21c5.5-2.1,9.9-3.8,14.3-5.6c4.8-2,8.8-7.3,13.1-7.6c4.2-0.2,8.2,5.5,13,7.4
	C53.9,17.1,58.6,18.8,64.3,21z"/>
<path class="st0" d="M37.6,78.7c0-15.6,0-30.9,0-46.2c0-2.1,0.8-3,2.9-2.9c7.8,0.1,15.6,0,23.5,0c1.3,0,2.8-0.2,2.6,1.9
	c-0.2,2-1.7,1.7-3,1.7c-6.2,0-12.3,0.2-18.5-0.1c-3.1-0.1-3.9,1-3.9,4c0.2,12,0,24,0.1,36C41.3,75.6,41.4,77.9,37.6,78.7z"/>
<path class="st0" d="M35.1,54.5c0,7,0,14,0,21c0,0.9,0.5,2.3-0.8,2.5c-1.4,0.2-2.6-0.7-2.9-2.1c-0.3-1.3-0.2-2.6-0.2-4
	c0-11.5-0.1-23,0.1-34.5c0.1-3.4-1-4.3-4.2-4.2c-5.8,0.2-11.7,0.1-17.5,0c-1.4,0-3.3,0.4-3.2-1.9c0.1-2.5,2.1-1.6,3.4-1.6
	c7.3-0.1,14.7,0,22-0.1c2.6,0,3.5,0.8,3.4,3.4C35,40.2,35.1,47.3,35.1,54.5z"/>
<path class="st0" d="M36.3,27.1c-8.8,0-17.6,0-26.5,0c-1.3,0-3.4,0.9-3.6-1.4c-0.2-2.8,2.1-2,3.5-2c17.8,0,35.6-0.1,53.4,0
	c1.4,0,3.8-0.7,3.6,2c-0.2,2.3-2.3,1.4-3.6,1.4C54.3,27.1,45.3,27.1,36.3,27.1z"/>
</svg>
