<?xml version="1.0" encoding="utf-8"?>
<!-- Generator: Adobe Illustrator 23.0.1, SVG Export Plug-In . SVG Version: 6.00 Build 0)  -->
<svg version="1.1" id="Layer_1" xmlns="http://www.w3.org/2000/svg" xmlns:xlink="http://www.w3.org/1999/xlink" x="0px" y="0px"
	 viewBox="0 0 400 95" style="enable-background:new 0 0 400 95;" xml:space="preserve">
<style type="text/css">
	.st0{fill:#FCFDFE;}
	.st1{fill:#5E5F5F;}
	.st2{fill:#3BA0EE;}
</style>
<g>
	<g>
		<path class="st0" d="M201,96c-65.3,0-130.7,0-196,0.1c-3.4,0-4.1-0.7-4.1-4.1c0.2-29.2,0.2-58.3,0-87.5c0-3,0.6-3.6,3.6-3.6
			c131,0.1,262,0.1,393,0c3,0,3.6,0.6,3.6,3.6c-0.1,29.3-0.1,58.7,0,88c0,3-0.6,3.6-3.6,3.6C332,96,266.5,96,201,96z M5.9,28.9
			c1.3,25.3,11.4,45.8,33,60c1.8,1.2,3.3,2.2,5.8,0.6c23.7-15.5,34.1-37.7,33.9-65.5c0-2.4-0.7-3.6-3.5-4.3
			C63.8,17.2,53.1,13,44.3,5.2c-1.5-1.4-2.5-1.5-4.1,0c-8.1,7.3-17.8,11.7-28.3,14c-4.9,1.1-6.8,3-6,7.9C6,27.6,5.9,28.3,5.9,28.9z
			 M276.6,57c2.7,0,5.3-0.2,8,0c2.9,0.2,3.9-1,3.6-3.7c-0.2-1.5,0-3,0-4.5c0-14.3,0-14.2-14.4-13.5c-2.3,0.1-3.7,0.5-3.7,3.3
			c0,2.7,1,3.6,3.5,3.4c1.5-0.1,3,0,4.5,0c2.2,0,2.4,1.6,2.1,3.1c-0.2,1.8,1.2,4.1-1.6,5.1c-8.8,3.1-15-1.1-15.1-10.5
			c0-2,0.2-4,0.5-6c0.8-4.4,3.4-6.7,8-6.6c4.3,0,8.7-0.1,13,0c2.4,0.1,3.2-0.8,3.2-3.2c0-2.5-1.1-3.1-3.3-3.1
			c-5.3,0.1-10.7-0.1-16,0.2c-5.1,0.3-9.3,2.4-11.8,7.2c-7.8,15,0.2,28.7,16.9,28.7C275,57,275.8,57,276.6,57z M182.5,39.2
			c0-5-0.1-10,0-14.9c0.1-2.6-0.8-3.5-3.4-3.4c-2.5,0.1-4.4,0.4-3.9,3.5c0.8,4.6-0.8,6.9-5.8,6.1c-1.1-0.2-2.3,0.2-3.4,0.4
			c-6.8,1.2-10.3,6-10,13.8c0.3,7.1,4.5,11.9,11.2,12.3c4,0.3,8,0,11.9,0.2c2.6,0.1,3.5-0.8,3.4-3.4C182.4,48.8,182.5,44,182.5,39.2
			z M370.2,48.7c0,4.8,0,9.6,0,14.5c0,0.2,0,0.3,0,0.5c-0.3,2.4,0.8,3,3.1,3.2c4,0.3,4.5-1.8,4.1-4.8c-0.5-3.7,0.7-5.7,4.8-5
			c0.8,0.1,1.7,0,2.5,0c7.3-0.3,11.5-4.5,12-11.9c0.5-7.8-3.4-13.3-10.6-14.3c-4.1-0.5-8.3-0.2-12.4-0.5c-2.9-0.2-3.7,1.2-3.6,3.9
			C370.3,39,370.2,43.9,370.2,48.7z M311.8,43.8c0,8.5,5.6,14,14.1,13.9c8.1-0.1,13.9-5.9,14-13.8c0-8.3-5.9-13.9-14.4-13.8
			C317.2,30.1,311.7,35.6,311.8,43.8z M200.5,57.1c1.3,0,2.7,0,4,0c1.9-0.1,4.1,0.7,4.2-2.6c0.1-3.5-2.3-3-4.4-3c-3-0.1-6-0.1-9-0.4
			c-1.5-0.1-2.4-1.3-2.2-2.8c0.2-1.7,1.7-1.3,2.7-1.3c3.2-0.1,6.3-0.1,9.5,0c2.3,0.1,3.3-0.7,3.3-3.1c0-2.4-1.2-2.7-3.2-2.6
			c-2.8,0.1-5.7,0.2-8.5,0c-1.4-0.1-3.8,1.2-3.9-1.5c-0.1-2.3,2-3,3.8-3.2c2.8-0.3,5.6-0.2,8.5-0.2c1.9,0,3.2-0.2,3.2-2.6
			c0-2.5-1.1-3.3-3.3-3.1c-3.5,0.2-7,0.2-10.4,0.5c-5.4,0.5-8.3,3.8-9.5,8.8C182.6,50.6,188.2,57,200.5,57.1z M104.1,42.1
			c0,4,0.1,8,0,12c-0.2,3.6,2.3,2.8,4.4,3c2.3,0.2,3.8-0.2,3.7-3.1c-0.2-5.6-0.2-11.3,0-17c0.1-3.1-1.4-6.9,0.7-9.1
			c1.8-1.9,5.4-0.6,8.2-0.6c2.1,0,2.9-0.8,2.9-2.9c0-2.2-0.4-3.4-3-3.4c-8.5,0.1-17,0.1-25.4,0c-2.2,0-2.8,1-2.8,3
			c0,2.3,0.6,3.4,3.1,3.3c1.7-0.1,3.3,0.1,5,0c2.7-0.2,3.5,1,3.4,3.5C104,34.5,104.1,38.3,104.1,42.1z M366.1,43.7
			c0-3.3-0.1-6.7,0-10c0.1-2.7-1-3.5-3.5-3.4c-2.3,0.1-3.7,0.5-3.6,3.3c0.2,4.3,0,8.6,0.1,13c0.1,2.7,0.1,4.9-3.8,4.6
			c-3.3-0.3-6.5,0.1-6.4-4.7c0.1-4-0.1-8,0.1-12c0.1-2.8-0.4-4.3-3.7-4.3c-3.2,0-3.5,1.5-3.4,4c0.1,4,0,8,0,12
			c0.1,7.8,2.6,10.5,10.3,10.8C366.1,57.5,366.1,57.5,366.1,43.7z M211,44c0,2.8,0,5.7,0,8.5c-0.1,2.6-0.3,4.8,3.7,4.7
			c3.7-0.1,3.4-2.1,3.4-4.5c-0.1-3.8,0-7.6,0-11.5c0-2.7-0.6-5.4,3.8-5c3.6,0.3,6.6,0.6,6.4,5.4c-0.2,4.1,0.1,8.3-0.1,12.5
			c-0.1,3.1,1.8,2.9,3.9,3c2.3,0.1,3.3-0.6,3.3-3.1c-0.2-5.1,0-10.3-0.1-15.5c-0.1-4.3-2.6-6.7-6.6-7.5c-2.1-0.4-4.3-0.6-6.4-0.7
			C211,30.1,211,30.1,211,41C211,42,211,43,211,44z M124.9,43.6c0,3.5,0.1,7,0,10.5c-0.1,2.6,1.1,3.1,3.3,3c2.1-0.1,3.9,0.1,3.8-3
			c-0.2-5-0.1-10,0-15c0-1.4-0.4-3.2,2-3.2c1.9,0,3.3,0.5,3.3,2.7c0,1.8,0.2,3.5,2.6,3.2c1.5-0.2,3.8,1,4.1-1.4
			c0.4-2.9,0.9-6.6-1.9-8.3c-4.7-3-10.5-2.2-15.5-1.2c-3.4,0.7-1.1,5.1-1.6,7.9C124.7,40.2,124.9,41.9,124.9,43.6z M291.9,43.2
			c0,3.5,0.1,7,0,10.5c-0.1,2.6,0.8,3.4,3.4,3.5c2.8,0,3.9-0.8,3.7-3.7c-0.2-4.8-0.1-9.6,0-14.5c0-1.4-0.3-3.1,2-3.2
			c2,0,3.2,0.6,3.2,2.8c-0.1,1.9,0.4,3.4,2.7,3.1c1.6-0.2,4.1,1,4.1-2c0-3.2,0.8-7.3-3.3-8.6c-4.8-1.5-10.4-2.1-14.7-0.2
			c-3.1,1.4-0.6,6.7-1.2,10.2C291.8,41.9,291.9,42.5,291.9,43.2z M153.9,43.8c0-3.3-0.2-6.7,0.1-10c0.2-3.1-1.3-3.5-3.9-3.5
			c-2.7,0-3.9,0.6-3.8,3.6c0.2,6.5,0.2,13,0,19.5c-0.1,2.8,0.7,3.8,3.7,3.8c2.9,0,4.3-0.6,4.1-3.9C153.7,50.1,153.9,46.9,153.9,43.8
			z M153.8,24.1c1-3.1-1.2-3.1-3.6-3.2c-2.5-0.1-4.1,0.3-4,3.4c0.1,2.7,1.2,3.4,3.6,3.3C152,27.5,154.4,27.9,153.8,24.1z"/>
		<path class="st1" d="M5.9,28.9c0-0.7,0.1-1.3,0-2c-0.9-4.8,1-6.8,6-7.9c10.5-2.3,20.2-6.7,28.3-14c1.6-1.4,2.6-1.3,4.1,0
			C53.1,13,63.8,17.2,75,19.8c2.8,0.6,3.5,1.8,3.5,4.3c0.2,27.8-10.2,50.1-33.9,65.5c-2.4,1.6-4,0.5-5.8-0.6
			C17.3,74.8,7.2,54.3,5.9,28.9z M75.4,28.8c1.2-3.9-1.1-6-6.4-7.3c-8.9-2.2-17.2-6.2-24.5-11.9c-1.4-1.1-2.4-1.9-4.2-0.4
			c-8.3,6.8-18,10.6-28.2,13.3c-2.4,0.6-3.2,1.6-3.1,4.1c0.6,24.3,9.7,44.1,29.8,58.5c2.7,1.9,4.5,1.6,6.9-0.2
			C64.7,71.5,73.7,53,75.4,28.8z"/>
		<path class="st2" d="M276.6,57c-0.8,0-1.7,0-2.5,0c-16.7,0-24.8-13.7-16.9-28.7c2.5-4.8,6.7-6.9,11.8-7.2c5.3-0.3,10.6-0.1,16-0.2
			c2.2-0.1,3.3,0.6,3.3,3.1c0,2.4-0.8,3.3-3.2,3.2c-4.3-0.1-8.7,0-13,0c-4.5,0-7.2,2.3-8,6.6c-0.4,2-0.6,4-0.5,6
			c0.1,9.4,6.2,13.6,15.1,10.5c2.8-1,1.4-3.3,1.6-5.1c0.2-1.5,0.1-3.1-2.1-3.1c-1.5,0-3-0.1-4.5,0c-2.6,0.2-3.5-0.7-3.5-3.4
			c0-2.8,1.4-3.2,3.7-3.3c14.4-0.7,14.4-0.8,14.4,13.5c0,1.5-0.1,3,0,4.5c0.3,2.8-0.7,4-3.6,3.7C282,56.8,279.3,57,276.6,57z"/>
		<path class="st2" d="M182.5,39.2c0,4.8-0.1,9.6,0,14.4c0.1,2.6-0.8,3.5-3.4,3.4c-4-0.2-8,0.1-11.9-0.2
			c-6.7-0.4-10.9-5.2-11.2-12.3c-0.3-7.7,3.2-12.6,10-13.8c1.1-0.2,2.3-0.6,3.4-0.4c5,0.8,6.6-1.5,5.8-6.1c-0.5-3.1,1.4-3.4,3.9-3.5
			c2.6-0.1,3.5,0.9,3.4,3.4C182.4,29.2,182.5,34.2,182.5,39.2z M175.4,43.8c-1.7-2.4,2.9-8-4.2-7.7c-5.4,0.2-8,2.7-7.9,8
			c0.1,5.2,2.1,6.9,7.9,7.1C177.8,51.5,174.2,46.5,175.4,43.8z"/>
		<path class="st2" d="M370.2,48.7c0-4.8,0.1-9.6,0-14.5c-0.1-2.7,0.7-4.1,3.6-3.9c4.1,0.2,8.3-0.1,12.4,0.5
			c7.2,1,11.2,6.5,10.6,14.3c-0.5,7.4-4.7,11.6-12,11.9c-0.8,0-1.7,0.2-2.5,0c-4.1-0.7-5.3,1.3-4.8,5c0.4,3.1-0.2,5.2-4.1,4.8
			c-2.3-0.2-3.4-0.9-3.1-3.2c0-0.2,0-0.3,0-0.5C370.2,58.3,370.2,53.5,370.2,48.7z M377,43.7c1.8,2.3-2.9,7.6,3.9,7.5
			c6.5,0,8.4-1.6,8.4-7.6c0-5.7-1.8-7.3-8-7.5C374.6,35.9,378.3,41,377,43.7z"/>
		<path class="st2" d="M311.8,43.8c0-8.2,5.4-13.7,13.7-13.8c8.5-0.1,14.4,5.6,14.4,13.8c0,8-5.8,13.7-14,13.8
			C317.4,57.9,311.8,52.3,311.8,43.8z M332.3,43.6c-0.1-4.9-2.5-7.7-6.6-7.7c-4.2,0.1-6.9,3.3-6.7,8.1c0.2,4.6,2.9,7.8,6.7,7.8
			C329.7,51.9,332.4,48.6,332.3,43.6z"/>
		<path class="st2" d="M200.5,57.1c-12.2,0-17.9-6.5-15.1-17.3c1.3-5,4.2-8.3,9.5-8.8c3.5-0.3,7-0.3,10.4-0.5
			c2.3-0.1,3.4,0.7,3.3,3.1c0,2.4-1.4,2.6-3.2,2.6c-2.8,0-5.7-0.1-8.5,0.2c-1.8,0.2-3.9,0.9-3.8,3.2c0.1,2.8,2.5,1.4,3.9,1.5
			c2.8,0.2,5.7,0.1,8.5,0c1.9-0.1,3.2,0.3,3.2,2.6c0,2.4-1,3.2-3.3,3.1c-3.2-0.1-6.3-0.1-9.5,0c-1.1,0-2.6-0.4-2.7,1.3
			c-0.2,1.5,0.7,2.7,2.2,2.8c3,0.3,6,0.4,9,0.4c2.1,0.1,4.4-0.5,4.4,3c0,3.3-2.3,2.5-4.2,2.6C203.1,57.1,201.8,57.1,200.5,57.1z"/>
		<path class="st2" d="M104.1,42.1c0-3.8-0.1-7.7,0-11.5c0.1-2.5-0.7-3.7-3.4-3.5c-1.6,0.2-3.3-0.1-5,0c-2.5,0.2-3.1-1-3.1-3.3
			c0-2,0.6-3,2.8-3c8.5,0.1,17,0.1,25.4,0c2.6,0,3,1.2,3,3.4c0,2.2-0.8,2.9-2.9,2.9c-2.8,0.1-6.4-1.3-8.2,0.6
			c-2.1,2.3-0.7,6-0.7,9.1c-0.2,5.6-0.2,11.3,0,17c0.1,2.9-1.4,3.3-3.7,3.1c-2.1-0.1-4.5,0.6-4.4-3
			C104.3,50.1,104.1,46.1,104.1,42.1z"/>
		<path class="st2" d="M366.1,43.7c0,13.9,0,13.9-13.8,13.4c-7.7-0.3-10.3-2.9-10.3-10.8c0-4,0.1-8,0-12c-0.1-2.5,0.2-4,3.4-4
			c3.3,0,3.9,1.5,3.7,4.3c-0.2,4,0.1,8-0.1,12c-0.2,4.8,3.1,4.4,6.4,4.7c3.9,0.3,3.8-1.9,3.8-4.6c-0.1-4.3,0.1-8.6-0.1-13
			c-0.1-2.8,1.3-3.3,3.6-3.3c2.5-0.1,3.6,0.7,3.5,3.4C366,37,366.1,40.4,366.1,43.7z"/>
		<path class="st2" d="M211,44c0-1,0-2,0-3c0-10.9,0-10.9,11.1-10.6c2.2,0.1,4.3,0.2,6.4,0.7c4,0.8,6.5,3.2,6.6,7.5
			c0.1,5.2,0,10.3,0.1,15.5c0.1,2.5-1,3.1-3.3,3.1c-2.1-0.1-4,0.1-3.9-3c0.2-4.1-0.1-8.3,0.1-12.5c0.3-4.9-2.7-5.1-6.4-5.4
			c-4.4-0.4-3.8,2.3-3.8,5c0,3.8,0,7.6,0,11.5c0,2.4,0.3,4.4-3.4,4.5c-4,0.1-3.7-2.1-3.7-4.7C211,49.6,211,46.8,211,44z"/>
		<path class="st2" d="M124.9,43.6c0-1.7-0.2-3.4,0-5c0.5-2.7-1.8-7.2,1.6-7.9c5-1,10.8-1.7,15.5,1.2c2.8,1.7,2.3,5.4,1.9,8.3
			c-0.3,2.4-2.7,1.3-4.1,1.4c-2.4,0.3-2.6-1.4-2.6-3.2c0-2.2-1.3-2.8-3.3-2.7c-2.4,0.1-1.9,1.8-2,3.2c0,5-0.2,10,0,15
			c0.1,3.1-1.7,3-3.8,3c-2.2,0.1-3.4-0.5-3.3-3C125,50.6,124.9,47.1,124.9,43.6z"/>
		<path class="st2" d="M291.9,43.2c0-0.7-0.1-1.3,0-2c0.5-3.5-1.9-8.8,1.2-10.2c4.3-1.9,9.9-1.3,14.7,0.2c4.1,1.3,3.3,5.4,3.3,8.6
			c0,3.1-2.6,1.8-4.1,2c-2.3,0.3-2.8-1.2-2.7-3.1c0.1-2.2-1.2-2.8-3.2-2.8c-2.4,0-2,1.7-2,3.2c0,4.8-0.2,9.7,0,14.5
			c0.1,2.9-1,3.7-3.7,3.7c-2.6,0-3.5-0.9-3.4-3.5C292,50.2,291.9,46.7,291.9,43.2z"/>
		<path class="st2" d="M153.9,43.8c0,3.2-0.2,6.3,0.1,9.5c0.3,3.2-1.2,3.8-4.1,3.9c-2.9,0-3.7-1-3.7-3.8c0.2-6.5,0.2-13,0-19.5
			c-0.1-3,1.1-3.6,3.8-3.6c2.6,0,4.1,0.4,3.9,3.5C153.7,37.1,153.9,40.4,153.9,43.8z"/>
		<path class="st2" d="M153.8,24.1c0.7,3.8-1.7,3.5-4,3.6c-2.4,0.1-3.6-0.6-3.6-3.3c-0.1-3.2,1.5-3.5,4-3.4
			C152.6,20.9,154.8,21,153.8,24.1z"/>
		<path class="st0" d="M75.4,28.8C73.7,53,64.7,71.5,45.8,84.9c-2.5,1.8-4.3,2.1-6.9,0.2C18.7,70.8,9.7,50.9,9.1,26.6
			c-0.1-2.4,0.7-3.4,3.1-4.1C22.4,19.9,32.1,16,40.3,9.3c1.8-1.5,2.8-0.7,4.2,0.4c7.3,5.7,15.6,9.7,24.5,11.9
			C74.2,22.9,76.6,24.9,75.4,28.8z M49.8,78.6c11.8-9.8,18.2-21.2,21.3-34.8c0.6-2.5,0.4-4.1-2.9-4c-5.1,0.2-10.3,0.1-15.4,0
			c-2.1,0-2.9,0.7-2.9,2.9C49.9,54.3,49.8,65.9,49.8,78.6z M34.2,78.3c0-12.6,0-24.1,0-35.5c0-2.1-0.8-3-2.9-2.9
			c-5.3,0.1-10.6,0.1-16,0c-2,0-2.7,0.7-2.3,2.7C16,56.5,22.4,68.3,34.2,78.3z M70,25c-5.7-2.2-10.3-4-14.9-5.8
			c-4.8-1.9-8.8-7.7-13-7.4c-4.3,0.3-8.3,5.6-13.1,7.6c-4.4,1.8-8.8,3.5-14.3,5.6C33.5,25,51.2,25,70,25z M43.3,82.7
			c3.8-0.8,3.8-3.1,3.8-5.5c0-12,0.1-24-0.1-36c0-3,0.7-4.1,3.9-4c6.1,0.2,12.3,0.1,18.5,0.1c1.3,0,2.8,0.3,3-1.7
			c0.2-2.1-1.4-1.9-2.6-1.9c-7.8,0-15.6,0-23.5,0c-2.1,0-2.9,0.8-2.9,2.9C43.3,51.8,43.3,67.1,43.3,82.7z M40.8,58.5
			c0-7.2-0.1-14.3,0-21.5c0.1-2.6-0.8-3.5-3.4-3.4c-7.3,0.1-14.7,0-22,0.1c-1.3,0-3.3-0.9-3.4,1.6c-0.1,2.4,1.8,1.9,3.2,1.9
			c5.8,0.1,11.7,0.2,17.5,0C36,37.1,37,38,37,41.4c-0.2,11.5-0.1,23-0.1,34.5c0,1.3-0.1,2.7,0.2,4c0.3,1.4,1.5,2.4,2.9,2.1
			c1.3-0.2,0.8-1.6,0.8-2.5C40.8,72.5,40.8,65.5,40.8,58.5z M42,31.1c9,0,18,0,27,0c1.3,0,3.4,0.8,3.6-1.4c0.2-2.7-2.2-2-3.6-2
			c-17.8-0.1-35.6-0.1-53.4,0c-1.4,0-3.8-0.8-3.5,2c0.2,2.3,2.3,1.4,3.6,1.4C24.3,31.1,33.2,31.1,42,31.1z"/>
		<path class="st0" d="M175.4,43.8c-1.3,2.7,2.4,7.7-4.2,7.4c-5.9-0.3-7.9-1.9-7.9-7.1c-0.1-5.3,2.6-7.8,7.9-8
			C178.4,35.9,173.8,41.4,175.4,43.8z"/>
		<path class="st0" d="M377,43.7c1.3-2.7-2.4-7.8,4.2-7.5c6.2,0.2,8,1.8,8,7.5c0,5.9-1.8,7.5-8.4,7.6C374.1,51.3,378.8,46,377,43.7z
			"/>
		<path class="st0" d="M332.3,43.6c0.1,5-2.5,8.3-6.6,8.3c-3.8,0-6.5-3.2-6.7-7.8c-0.2-4.8,2.5-8.1,6.7-8.1
			C329.8,35.9,332.2,38.7,332.3,43.6z"/>
		<path class="st2" d="M49.8,78.6c0-12.7,0-24.3,0-35.8c0-2.1,0.8-2.9,2.9-2.9c5.1,0.1,10.3,0.2,15.4,0c3.3-0.1,3.5,1.5,2.9,4
			C68.1,57.4,61.6,68.8,49.8,78.6z"/>
		<path class="st2" d="M34.2,78.3C22.4,68.3,16,56.5,13.1,42.6c-0.4-1.9,0.3-2.7,2.3-2.7c5.3,0.1,10.6,0.1,16,0
			c2.1,0,2.9,0.8,2.9,2.9C34.2,54.3,34.2,65.7,34.2,78.3z"/>
		<path class="st2" d="M70,25c-18.8,0-36.4,0-55.3,0c5.5-2.1,9.9-3.8,14.3-5.6c4.8-2,8.8-7.3,13.1-7.6c4.2-0.2,8.2,5.5,13,7.4
			C59.6,21.1,64.3,22.8,70,25z"/>
		<path class="st1" d="M43.3,82.7c0-15.6,0-30.9,0-46.2c0-2.1,0.8-3,2.9-2.9c7.8,0.1,15.6,0,23.5,0c1.3,0,2.8-0.2,2.6,1.9
			c-0.2,2-1.7,1.7-3,1.7c-6.2,0-12.3,0.2-18.5-0.1c-3.1-0.1-3.9,1-3.9,4c0.2,12,0,24,0.1,36C47,79.6,47.1,81.9,43.3,82.7z"/>
		<path class="st1" d="M40.8,58.5c0,7,0,14,0,21c0,0.9,0.5,2.3-0.8,2.5c-1.4,0.2-2.6-0.7-2.9-2.1c-0.3-1.3-0.2-2.6-0.2-4
			c0-11.5-0.1-23,0.1-34.5c0.1-3.4-1-4.3-4.2-4.2c-5.8,0.2-11.7,0.1-17.5,0c-1.4,0-3.3,0.4-3.2-1.9c0.1-2.5,2.1-1.6,3.4-1.6
			c7.3-0.1,14.7,0,22-0.1c2.6,0,3.5,0.8,3.4,3.4C40.7,44.2,40.8,51.3,40.8,58.5z"/>
		<path class="st1" d="M42,31.1c-8.8,0-17.6,0-26.5,0c-1.3,0-3.4,0.9-3.6-1.4c-0.2-2.8,2.1-2,3.5-2c17.8,0,35.6-0.1,53.4,0
			c1.4,0,3.8-0.7,3.6,2c-0.2,2.3-2.3,1.4-3.6,1.4C60,31.1,51,31.1,42,31.1z"/>
	</g>
</g>
</svg>
